v -77.372574 40.108051 -0.005669
v -77.083130 38.812725 -0.005669
v -76.640343 38.018383 -0.005669
v -71.253471 28.619167 -0.005669
v -68.348595 23.582521 -0.005669
v -66.578697 20.555462 -0.005669
v -66.138802 19.877319 -0.005669
v -65.603600 19.312872 -0.005669
v -65.553978 19.332623 -0.005669
v -57.181942 24.123186 -0.005669
v -31.343607 39.040218 -0.005669
v -28.936199 40.452572 -0.005669
v -28.660799 40.887321 -0.005669
v -28.907379 41.361794 -0.005669
v -30.345545 43.856762 -0.005669
v -39.458302 59.662796 -0.005669
v -40.248585 60.940010 -0.005669
v -40.516453 61.246838 -0.005669
v -40.586960 61.318890 -0.005669
v -41.658291 60.735935 -0.005669
v -50.296284 55.810661 -0.005669
v -71.746964 43.433960 -0.005669
v -77.372574 40.108051 8.712256
v -77.083130 38.812725 8.712256
v -76.640343 38.018383 8.712256
v -71.253471 28.619167 8.712256
v -68.348595 23.582521 8.712256
v -66.578697 20.555462 8.712256
v -66.138802 19.877319 8.712256
v -65.603600 19.312872 8.712256
v -65.553978 19.332623 8.712256
v -57.181942 24.123186 8.712256
v -31.343607 39.040218 8.712256
v -28.936199 40.452572 8.712256
v -28.660799 40.887321 8.712256
v -28.907379 41.361794 8.712256
v -30.345545 43.856762 8.712256
v -39.458302 59.662796 8.712256
v -40.248585 60.940010 8.712256
v -40.516453 61.246838 8.712256
v -40.586960 61.318890 8.712256
v -41.658291 60.735935 8.712256
v -50.296284 55.810661 8.712256
v -71.746964 43.433960 8.712256
g WallSurface
f 1 2 24
f 1 24 23
f 2 3 25
f 2 25 24
f 3 4 26
f 3 26 25
f 4 5 27
f 4 27 26
f 5 6 28
f 5 28 27
f 6 7 29
f 6 29 28
f 7 8 30
f 7 30 29
f 8 9 31
f 8 31 30
f 9 10 32
f 9 32 31
f 10 11 33
f 10 33 32
f 11 12 34
f 11 34 33
f 12 13 35
f 12 35 34
f 13 14 36
f 13 36 35
f 14 15 37
f 14 37 36
f 15 16 38
f 15 38 37
f 16 17 39
f 16 39 38
f 17 18 40
f 17 40 39
f 18 19 41
f 18 41 40
f 19 20 42
f 19 42 41
f 20 21 43
f 20 43 42
f 21 22 44
f 21 44 43
f 22 1 23
f 22 23 44
g RoofSurface
f 23 24 25
f 23 25 26
f 23 26 27
f 23 27 28
f 23 28 29
f 23 29 30
f 23 30 31
f 23 31 32
f 23 32 33
f 23 33 34
f 23 34 35
f 23 35 36
f 23 36 37
f 23 37 38
f 23 38 39
f 23 39 40
f 23 40 41
f 23 41 42
f 23 42 43
f 23 43 44
g GroundSurface
f 1 2 3
f 1 3 4
f 1 4 5
f 1 5 6
f 1 6 7
f 1 7 8
f 1 8 9
f 1 9 10
f 1 10 11
f 1 11 12
f 1 12 13
f 1 13 14
f 1 14 15
f 1 15 16
f 1 16 17
f 1 17 18
f 1 18 19
f 1 19 20
f 1 20 21
f 1 21 22
