v 17.269705 -29.864145 -0.016992
v 17.393799 -29.959486 -0.016992
v 17.913937 -30.279810 -0.016992
v 19.812210 -31.333519 -0.016992
v 21.024090 -31.928171 -0.016992
v 21.374449 -32.085693 -0.016992
v 21.698158 -32.170242 -0.016992
v 22.591608 -31.929146 -0.016992
v 24.014790 -31.496891 -0.016992
v 26.690939 -30.580605 -0.016992
v 27.589338 -30.258736 -0.016992
v 27.662853 -29.949898 -0.016992
v 27.802324 -29.344231 -0.016992
v 28.734999 -25.187632 -0.016992
v 29.353001 -21.964552 -0.016992
v 29.471542 -21.044294 -0.016992
v 29.504219 -20.765574 -0.016992
v 29.429632 -18.949980 -0.016992
v 29.028774 -12.784653 -0.016992
v 28.819677 -10.082700 -0.016992
v 28.543535 -10.056577 -0.016992
v 27.928053 -10.049207 -0.016992
v 25.594442 -10.179575 -0.016992
v 23.006300 -10.325234 -0.016992
v 21.870110 -10.444760 -0.016992
v 21.799932 -10.488814 -0.016992
v 21.734930 -10.533536 -0.016992
v 21.376513 -11.196486 -0.016992
v 20.194353 -13.615933 -0.016992
v 18.322430 -17.978144 -0.016992
v 17.332832 -28.730471 -0.016992
v 17.269705 -29.864145 33.530495
v 17.393799 -29.959486 33.530495
v 17.913937 -30.279810 33.530495
v 19.812210 -31.333519 33.530495
v 21.024090 -31.928171 33.530495
v 21.374449 -32.085693 33.530495
v 21.698158 -32.170242 33.530495
v 22.591608 -31.929146 33.530495
v 24.014790 -31.496891 33.530495
v 26.690939 -30.580605 33.530495
v 27.589338 -30.258736 33.530495
v 27.662853 -29.949898 33.530495
v 27.802324 -29.344231 33.530495
v 28.734999 -25.187632 33.530495
v 29.353001 -21.964552 33.530495
v 29.471542 -21.044294 33.530495
v 29.504219 -20.765574 33.530495
v 29.429632 -18.949980 33.530495
v 29.028774 -12.784653 33.530495
v 28.819677 -10.082700 33.530495
v 28.543535 -10.056577 33.530495
v 27.928053 -10.049207 33.530495
v 25.594442 -10.179575 33.530495
v 23.006300 -10.325234 33.530495
v 21.870110 -10.444760 33.530495
v 21.799932 -10.488814 33.530495
v 21.734930 -10.533536 33.530495
v 21.376513 -11.196486 33.530495
v 20.194353 -13.615933 33.530495
v 18.322430 -17.978144 33.530495
v 17.332832 -28.730471 33.530495
g WallSurface
f 1 2 33
f 1 33 32
f 2 3 34
f 2 34 33
f 3 4 35
f 3 35 34
f 4 5 36
f 4 36 35
f 5 6 37
f 5 37 36
f 6 7 38
f 6 38 37
f 7 8 39
f 7 39 38
f 8 9 40
f 8 40 39
f 9 10 41
f 9 41 40
f 10 11 42
f 10 42 41
f 11 12 43
f 11 43 42
f 12 13 44
f 12 44 43
f 13 14 45
f 13 45 44
f 14 15 46
f 14 46 45
f 15 16 47
f 15 47 46
f 16 17 48
f 16 48 47
f 17 18 49
f 17 49 48
f 18 19 50
f 18 50 49
f 19 20 51
f 19 51 50
f 20 21 52
f 20 52 51
f 21 22 53
f 21 53 52
f 22 23 54
f 22 54 53
f 23 24 55
f 23 55 54
f 24 25 56
f 24 56 55
f 25 26 57
f 25 57 56
f 26 27 58
f 26 58 57
f 27 28 59
f 27 59 58
f 28 29 60
f 28 60 59
f 29 30 61
f 29 61 60
f 30 31 62
f 30 62 61
f 31 1 32
f 31 32 62
g RoofSurface
f 32 33 34
f 32 34 35
f 32 35 36
f 32 36 37
f 32 37 38
f 32 38 39
f 32 39 40
f 32 40 41
f 32 41 42
f 32 42 43
f 32 43 44
f 32 44 45
f 32 45 46
f 32 46 47
f 32 47 48
f 32 48 49
f 32 49 50
f 32 50 51
f 32 51 52
f 32 52 53
f 32 53 54
f 32 54 55
f 32 55 56
f 32 56 57
f 32 57 58
f 32 58 59
f 32 59 60
f 32 60 61
f 32 61 62
g GroundSurface
f 1 2 3
f 1 3 4
f 1 4 5
f 1 5 6
f 1 6 7
f 1 7 8
f 1 8 9
f 1 9 10
f 1 10 11
f 1 11 12
f 1 12 13
f 1 13 14
f 1 14 15
f 1 15 16
f 1 16 17
f 1 17 18
f 1 18 19
f 1 19 20
f 1 20 21
f 1 21 22
f 1 22 23
f 1 23 24
f 1 24 25
f 1 25 26
f 1 26 27
f 1 27 28
f 1 28 29
f 1 29 30
f 1 30 31
