v 4.317184 50.985950 0.001670
v 4.365183 50.904217 0.001670
v 26.876566 42.283108 0.001670
v 27.070366 42.259354 0.001670
v 27.628115 42.222603 0.001670
v 30.899858 42.154037 0.001670
v 37.201309 42.044991 0.001670
v 37.833729 42.399929 0.001670
v 37.897537 42.555737 0.001670
v 38.083309 49.755676 0.001670
v 38.414417 62.685753 0.001670
v 38.430149 64.471260 0.001670
v 38.371258 65.133339 0.001670
v 37.911686 65.240555 0.001670
v 37.586369 65.267525 0.001670
v 37.094696 65.299171 0.001670
v 34.421791 65.387344 0.001670
v 28.896517 65.516876 0.001670
v 27.125044 65.521721 0.001670
v 26.880428 65.484299 0.001670
v 4.502529 57.869728 0.001670
v 4.469596 57.855560 0.001670
v 4.402222 55.652245 0.001670
v 4.317184 50.985950 13.404863
v 4.365183 50.904217 13.404863
v 26.876566 42.283108 13.404863
v 27.070366 42.259354 13.404863
v 27.628115 42.222603 13.404863
v 30.899858 42.154037 13.404863
v 37.201309 42.044991 13.404863
v 37.833729 42.399929 13.404863
v 37.897537 42.555737 13.404863
v 38.083309 49.755676 13.404863
v 38.414417 62.685753 13.404863
v 38.430149 64.471260 13.404863
v 38.371258 65.133339 13.404863
v 37.911686 65.240555 13.404863
v 37.586369 65.267525 13.404863
v 37.094696 65.299171 13.404863
v 34.421791 65.387344 13.404863
v 28.896517 65.516876 13.404863
v 27.125044 65.521721 13.404863
v 26.880428 65.484299 13.404863
v 4.502529 57.869728 13.404863
v 4.469596 57.855560 13.404863
v 4.402222 55.652245 13.404863
g WallSurface
f 1 2 25
f 1 25 24
f 2 3 26
f 2 26 25
f 3 4 27
f 3 27 26
f 4 5 28
f 4 28 27
f 5 6 29
f 5 29 28
f 6 7 30
f 6 30 29
f 7 8 31
f 7 31 30
f 8 9 32
f 8 32 31
f 9 10 33
f 9 33 32
f 10 11 34
f 10 34 33
f 11 12 35
f 11 35 34
f 12 13 36
f 12 36 35
f 13 14 37
f 13 37 36
f 14 15 38
f 14 38 37
f 15 16 39
f 15 39 38
f 16 17 40
f 16 40 39
f 17 18 41
f 17 41 40
f 18 19 42
f 18 42 41
f 19 20 43
f 19 43 42
f 20 21 44
f 20 44 43
f 21 22 45
f 21 45 44
f 22 23 46
f 22 46 45
f 23 1 24
f 23 24 46
g RoofSurface
f 24 25 26
f 24 26 27
f 24 27 28
f 24 28 29
f 24 29 30
f 24 30 31
f 24 31 32
f 24 32 33
f 24 33 34
f 24 34 35
f 24 35 36
f 24 36 37
f 24 37 38
f 24 38 39
f 24 39 40
f 24 40 41
f 24 41 42
f 24 42 43
f 24 43 44
f 24 44 45
f 24 45 46
g GroundSurface
f 1 2 3
f 1 3 4
f 1 4 5
f 1 5 6
f 1 6 7
f 1 7 8
f 1 8 9
f 1 9 10
f 1 10 11
f 1 11 12
f 1 12 13
f 1 13 14
f 1 14 15
f 1 15 16
f 1 16 17
f 1 17 18
f 1 18 19
f 1 19 20
f 1 20 21
f 1 21 22
f 1 22 23
