v 34.574814 10.959075 -0.035918
v 34.771038 1.154343 -0.035918
v 34.872105 -3.590724 -0.035918
v 34.927258 -5.626657 -0.035918
v 35.013824 -8.359665 -0.035918
v 35.083752 -8.371181 -0.035918
v 37.413929 -8.353013 -0.035918
v 37.917599 -8.347733 -0.035918
v 51.856430 -8.086077 -0.035918
v 65.134109 -7.824690 -0.035918
v 68.579613 -7.720488 -0.035918
v 69.272354 -7.698891 -0.035918
v 69.579712 -7.687948 -0.035918
v 69.792259 -7.668340 -0.035918
v 70.036964 -7.627677 -0.035918
v 70.081177 -7.603818 -0.035918
v 70.140274 -7.144411 -0.035918
v 70.116737 -5.521600 -0.035918
v 70.020889 -0.665617 -0.035918
v 69.812965 9.829367 -0.035918
v 69.799927 10.368351 -0.035918
v 69.736122 12.745755 -0.035918
v 69.652473 12.902008 -0.035918
v 68.721519 12.888989 -0.035918
v 67.473740 12.871040 -0.035918
v 59.637589 12.742800 -0.035918
v 49.370396 12.550275 -0.035918
v 38.395573 12.332792 -0.035918
v 35.001823 12.227488 -0.035918
v 34.953503 12.224370 -0.035918
v 34.871387 12.192879 -0.035918
v 34.650181 12.059052 -0.035918
v 34.635815 11.971992 -0.035918
v 34.574814 10.959075 17.593222
v 34.771038 1.154343 17.593222
v 34.872105 -3.590724 17.593222
v 34.927258 -5.626657 17.593222
v 35.013824 -8.359665 17.593222
v 35.083752 -8.371181 17.593222
v 37.413929 -8.353013 17.593222
v 37.917599 -8.347733 17.593222
v 51.856430 -8.086077 17.593222
v 65.134109 -7.824690 17.593222
v 68.579613 -7.720488 17.593222
v 69.272354 -7.698891 17.593222
v 69.579712 -7.687948 17.593222
v 69.792259 -7.668340 17.593222
v 70.036964 -7.627677 17.593222
v 70.081177 -7.603818 17.593222
v 70.140274 -7.144411 17.593222
v 70.116737 -5.521600 17.593222
v 70.020889 -0.665617 17.593222
v 69.812965 9.829367 17.593222
v 69.799927 10.368351 17.593222
v 69.736122 12.745755 17.593222
v 69.652473 12.902008 17.593222
v 68.721519 12.888989 17.593222
v 67.473740 12.871040 17.593222
v 59.637589 12.742800 17.593222
v 49.370396 12.550275 17.593222
v 38.395573 12.332792 17.593222
v 35.001823 12.227488 17.593222
v 34.953503 12.224370 17.593222
v 34.871387 12.192879 17.593222
v 34.650181 12.059052 17.593222
v 34.635815 11.971992 17.593222
g WallSurface
f 1 2 35
f 1 35 34
f 2 3 36
f 2 36 35
f 3 4 37
f 3 37 36
f 4 5 38
f 4 38 37
f 5 6 39
f 5 39 38
f 6 7 40
f 6 40 39
f 7 8 41
f 7 41 40
f 8 9 42
f 8 42 41
f 9 10 43
f 9 43 42
f 10 11 44
f 10 44 43
f 11 12 45
f 11 45 44
f 12 13 46
f 12 46 45
f 13 14 47
f 13 47 46
f 14 15 48
f 14 48 47
f 15 16 49
f 15 49 48
f 16 17 50
f 16 50 49
f 17 18 51
f 17 51 50
f 18 19 52
f 18 52 51
f 19 20 53
f 19 53 52
f 20 21 54
f 20 54 53
f 21 22 55
f 21 55 54
f 22 23 56
f 22 56 55
f 23 24 57
f 23 57 56
f 24 25 58
f 24 58 57
f 25 26 59
f 25 59 58
f 26 27 60
f 26 60 59
f 27 28 61
f 27 61 60
f 28 29 62
f 28 62 61
f 29 30 63
f 29 63 62
f 30 31 64
f 30 64 63
f 31 32 65
f 31 65 64
f 32 33 66
f 32 66 65
f 33 1 34
f 33 34 66
g RoofSurface
f 34 35 36
f 34 36 37
f 34 37 38
f 34 38 39
f 34 39 40
f 34 40 41
f 34 41 42
f 34 42 43
f 34 43 44
f 34 44 45
f 34 45 46
f 34 46 47
f 34 47 48
f 34 48 49
f 34 49 50
f 34 50 51
f 34 51 52
f 34 52 53
f 34 53 54
f 34 54 55
f 34 55 56
f 34 56 57
f 34 57 58
f 34 58 59
f 34 59 60
f 34 60 61
f 34 61 62
f 34 62 63
f 34 63 64
f 34 64 65
f 34 65 66
g GroundSurface
f 1 2 3
f 1 3 4
f 1 4 5
f 1 5 6
f 1 6 7
f 1 7 8
f 1 8 9
f 1 9 10
f 1 10 11
f 1 11 12
f 1 12 13
f 1 13 14
f 1 14 15
f 1 15 16
f 1 16 17
f 1 17 18
f 1 18 19
f 1 19 20
f 1 20 21
f 1 21 22
f 1 22 23
f 1 23 24
f 1 24 25
f 1 25 26
f 1 26 27
f 1 27 28
f 1 28 29
f 1 29 30
f 1 30 31
f 1 31 32
f 1 32 33
