v -39.261227 -0.011075 -0.021259
v -39.096870 -0.303398 -0.021259
v -38.577702 -0.897288 -0.021259
v -36.593616 -3.007938 -0.021259
v -31.220428 -8.712569 -0.021259
v -26.539261 -13.671607 -0.021259
v -23.628967 -16.747417 -0.021259
v -23.051262 -17.280485 -0.021259
v -22.847914 -17.244823 -0.021259
v -19.341164 -13.984307 -0.021259
v -12.184593 -7.203321 -0.021259
v -10.738930 -5.810894 -0.021259
v -10.190351 -5.260368 -0.021259
v -5.664942 14.907015 -0.021259
v -5.740705 15.005915 -0.021259
v -8.534441 17.985453 -0.021259
v -10.612140 20.192322 -0.021259
v -12.504155 22.181761 -0.021259
v -13.546508 23.244373 -0.021259
v -13.892895 23.547333 -0.021259
v -14.135850 23.674042 -0.021259
v -15.241844 22.728008 -0.021259
v -20.246943 18.019943 -0.021259
v -29.431179 9.379889 -0.021259
v -32.763935 6.226459 -0.021259
v -35.123455 3.985373 -0.021259
v -39.214203 0.068126 -0.021259
v -39.261227 -0.011075 14.319363
v -39.096870 -0.303398 14.319363
v -38.577702 -0.897288 14.319363
v -36.593616 -3.007938 14.319363
v -31.220428 -8.712569 14.319363
v -26.539261 -13.671607 14.319363
v -23.628967 -16.747417 14.319363
v -23.051262 -17.280485 14.319363
v -22.847914 -17.244823 14.319363
v -19.341164 -13.984307 14.319363
v -12.184593 -7.203321 14.319363
v -10.738930 -5.810894 14.319363
v -10.190351 -5.260368 14.319363
v -5.664942 14.907015 14.319363
v -5.740705 15.005915 14.319363
v -8.534441 17.985453 14.319363
v -10.612140 20.192322 14.319363
v -12.504155 22.181761 14.319363
v -13.546508 23.244373 14.319363
v -13.892895 23.547333 14.319363
v -14.135850 23.674042 14.319363
v -15.241844 22.728008 14.319363
v -20.246943 18.019943 14.319363
v -29.431179 9.379889 14.319363
v -32.763935 6.226459 14.319363
v -35.123455 3.985373 14.319363
v -39.214203 0.068126 14.319363
g WallSurface
f 1 2 29
f 1 29 28
f 2 3 30
f 2 30 29
f 3 4 31
f 3 31 30
f 4 5 32
f 4 32 31
f 5 6 33
f 5 33 32
f 6 7 34
f 6 34 33
f 7 8 35
f 7 35 34
f 8 9 36
f 8 36 35
f 9 10 37
f 9 37 36
f 10 11 38
f 10 38 37
f 11 12 39
f 11 39 38
f 12 13 40
f 12 40 39
f 13 14 41
f 13 41 40
f 14 15 42
f 14 42 41
f 15 16 43
f 15 43 42
f 16 17 44
f 16 44 43
f 17 18 45
f 17 45 44
f 18 19 46
f 18 46 45
f 19 20 47
f 19 47 46
f 20 21 48
f 20 48 47
f 21 22 49
f 21 49 48
f 22 23 50
f 22 50 49
f 23 24 51
f 23 51 50
f 24 25 52
f 24 52 51
f 25 26 53
f 25 53 52
f 26 27 54
f 26 54 53
f 27 1 28
f 27 28 54
g RoofSurface
f 28 29 30
f 28 30 31
f 28 31 32
f 28 32 33
f 28 33 34
f 28 34 35
f 28 35 36
f 28 36 37
f 28 37 38
f 28 38 39
f 28 39 40
f 28 40 41
f 28 41 42
f 28 42 43
f 28 43 44
f 28 44 45
f 28 45 46
f 28 46 47
f 28 47 48
f 28 48 49
f 28 49 50
f 28 50 51
f 28 51 52
f 28 52 53
f 28 53 54
g GroundSurface
f 1 2 3
f 1 3 4
f 1 4 5
f 1 5 6
f 1 6 7
f 1 7 8
f 1 8 9
f 1 9 10
f 1 10 11
f 1 11 12
f 1 12 13
f 1 13 14
f 1 14 15
f 1 15 16
f 1 16 17
f 1 17 18
f 1 18 19
f 1 19 20
f 1 20 21
f 1 21 22
f 1 22 23
f 1 23 24
f 1 24 25
f 1 25 26
f 1 26 27
