v 33.433617 25.036995 0.016242
v 33.538296 24.918152 0.016242
v 33.934608 24.557491 0.016242
v 36.963825 22.135977 0.016242
v 38.125378 21.257551 0.016242
v 38.368618 21.138977 0.016242
v 38.611656 21.030766 0.016242
v 46.338234 17.834700 0.016242
v 46.846634 17.706438 0.016242
v 47.234138 17.675495 0.016242
v 53.469944 17.224781 0.016242
v 58.638561 16.912512 0.016242
v 58.791229 17.123449 0.016242
v 58.687420 18.125612 0.016242
v 58.466797 19.552608 0.016242
v 58.025120 21.459555 0.016242
v 57.894650 21.986362 0.016242
v 57.759750 22.473469 0.016242
v 57.181145 23.986958 0.016242
v 56.855770 24.667715 0.016242
v 56.814823 24.715372 0.016242
v 56.796520 24.730528 0.016242
v 55.680573 25.211552 0.016242
v 55.158176 25.432144 0.016242
v 53.376030 26.086405 0.016242
v 51.724899 26.661144 0.016242
v 51.047047 26.889128 0.016242
v 50.487122 27.075375 0.016242
v 49.508137 27.388628 0.016242
v 48.955883 27.372580 0.016242
v 47.718254 27.282135 0.016242
v 45.674725 27.131830 0.016242
v 38.165169 26.493944 0.016242
v 37.151974 26.370426 0.016242
v 36.881226 26.298904 0.016242
v 33.992805 25.267075 0.016242
v 33.433617 25.036995 29.847002
v 33.538296 24.918152 29.847002
v 33.934608 24.557491 29.847002
v 36.963825 22.135977 29.847002
v 38.125378 21.257551 29.847002
v 38.368618 21.138977 29.847002
v 38.611656 21.030766 29.847002
v 46.338234 17.834700 29.847002
v 46.846634 17.706438 29.847002
v 47.234138 17.675495 29.847002
v 53.469944 17.224781 29.847002
v 58.638561 16.912512 29.847002
v 58.791229 17.123449 29.847002
v 58.687420 18.125612 29.847002
v 58.466797 19.552608 29.847002
v 58.025120 21.459555 29.847002
v 57.894650 21.986362 29.847002
v 57.759750 22.473469 29.847002
v 57.181145 23.986958 29.847002
v 56.855770 24.667715 29.847002
v 56.814823 24.715372 29.847002
v 56.796520 24.730528 29.847002
v 55.680573 25.211552 29.847002
v 55.158176 25.432144 29.847002
v 53.376030 26.086405 29.847002
v 51.724899 26.661144 29.847002
v 51.047047 26.889128 29.847002
v 50.487122 27.075375 29.847002
v 49.508137 27.388628 29.847002
v 48.955883 27.372580 29.847002
v 47.718254 27.282135 29.847002
v 45.674725 27.131830 29.847002
v 38.165169 26.493944 29.847002
v 37.151974 26.370426 29.847002
v 36.881226 26.298904 29.847002
v 33.992805 25.267075 29.847002
g WallSurface
f 1 2 38
f 1 38 37
f 2 3 39
f 2 39 38
f 3 4 40
f 3 40 39
f 4 5 41
f 4 41 40
f 5 6 42
f 5 42 41
f 6 7 43
f 6 43 42
f 7 8 44
f 7 44 43
f 8 9 45
f 8 45 44
f 9 10 46
f 9 46 45
f 10 11 47
f 10 47 46
f 11 12 48
f 11 48 47
f 12 13 49
f 12 49 48
f 13 14 50
f 13 50 49
f 14 15 51
f 14 51 50
f 15 16 52
f 15 52 51
f 16 17 53
f 16 53 52
f 17 18 54
f 17 54 53
f 18 19 55
f 18 55 54
f 19 20 56
f 19 56 55
f 20 21 57
f 20 57 56
f 21 22 58
f 21 58 57
f 22 23 59
f 22 59 58
f 23 24 60
f 23 60 59
f 24 25 61
f 24 61 60
f 25 26 62
f 25 62 61
f 26 27 63
f 26 63 62
f 27 28 64
f 27 64 63
f 28 29 65
f 28 65 64
f 29 30 66
f 29 66 65
f 30 31 67
f 30 67 66
f 31 32 68
f 31 68 67
f 32 33 69
f 32 69 68
f 33 34 70
f 33 70 69
f 34 35 71
f 34 71 70
f 35 36 72
f 35 72 71
f 36 1 37
f 36 37 72
g RoofSurface
f 37 38 39
f 37 39 40
f 37 40 41
f 37 41 42
f 37 42 43
f 37 43 44
f 37 44 45
f 37 45 46
f 37 46 47
f 37 47 48
f 37 48 49
f 37 49 50
f 37 50 51
f 37 51 52
f 37 52 53
f 37 53 54
f 37 54 55
f 37 55 56
f 37 56 57
f 37 57 58
f 37 58 59
f 37 59 60
f 37 60 61
f 37 61 62
f 37 62 63
f 37 63 64
f 37 64 65
f 37 65 66
f 37 66 67
f 37 67 68
f 37 68 69
f 37 69 70
f 37 70 71
f 37 71 72
g GroundSurface
f 1 2 3
f 1 3 4
f 1 4 5
f 1 5 6
f 1 6 7
f 1 7 8
f 1 8 9
f 1 9 10
f 1 10 11
f 1 11 12
f 1 12 13
f 1 13 14
f 1 14 15
f 1 15 16
f 1 16 17
f 1 17 18
f 1 18 19
f 1 19 20
f 1 20 21
f 1 21 22
f 1 22 23
f 1 23 24
f 1 24 25
f 1 25 26
f 1 26 27
f 1 27 28
f 1 28 29
f 1 29 30
f 1 30 31
f 1 31 32
f 1 32 33
f 1 33 34
f 1 34 35
f 1 35 36
