v 9.967191 56.433586 -0.037004
v 10.280526 55.936157 -0.037004
v 15.195313 50.997280 -0.037004
v 19.486027 46.751785 -0.037004
v 19.656967 46.610031 -0.037004
v 20.164064 46.213001 -0.037004
v 20.367840 46.073811 -0.037004
v 20.623873 46.263542 -0.037004
v 21.395212 46.935043 -0.037004
v 31.922890 57.461670 -0.037004
v 38.591007 64.170662 -0.037004
v 39.304626 65.031593 -0.037004
v 39.328869 65.300240 -0.037004
v 37.699940 66.941086 -0.037004
v 31.097601 73.513855 -0.037004
v 29.397594 75.109512 -0.037004
v 28.952545 75.452499 -0.037004
v 28.873131 75.410355 -0.037004
v 28.835604 75.378876 -0.037004
v 28.328415 74.928123 -0.037004
v 27.805395 74.448021 -0.037004
v 27.748018 74.392998 -0.037004
v 23.066414 69.760002 -0.037004
v 11.314168 57.945156 -0.037004
v 10.040228 56.623661 -0.037004
v 9.967821 56.448898 -0.037004
v 9.967191 56.433586 25.628147
v 10.280526 55.936157 25.628147
v 15.195313 50.997280 25.628147
v 19.486027 46.751785 25.628147
v 19.656967 46.610031 25.628147
v 20.164064 46.213001 25.628147
v 20.367840 46.073811 25.628147
v 20.623873 46.263542 25.628147
v 21.395212 46.935043 25.628147
v 31.922890 57.461670 25.628147
v 38.591007 64.170662 25.628147
v 39.304626 65.031593 25.628147
v 39.328869 65.300240 25.628147
v 37.699940 66.941086 25.628147
v 31.097601 73.513855 25.628147
v 29.397594 75.109512 25.628147
v 28.952545 75.452499 25.628147
v 28.873131 75.410355 25.628147
v 28.835604 75.378876 25.628147
v 28.328415 74.928123 25.628147
v 27.805395 74.448021 25.628147
v 27.748018 74.392998 25.628147
v 23.066414 69.760002 25.628147
v 11.314168 57.945156 25.628147
v 10.040228 56.623661 25.628147
v 9.967821 56.448898 25.628147
g WallSurface
f 1 2 28
f 1 28 27
f 2 3 29
f 2 29 28
f 3 4 30
f 3 30 29
f 4 5 31
f 4 31 30
f 5 6 32
f 5 32 31
f 6 7 33
f 6 33 32
f 7 8 34
f 7 34 33
f 8 9 35
f 8 35 34
f 9 10 36
f 9 36 35
f 10 11 37
f 10 37 36
f 11 12 38
f 11 38 37
f 12 13 39
f 12 39 38
f 13 14 40
f 13 40 39
f 14 15 41
f 14 41 40
f 15 16 42
f 15 42 41
f 16 17 43
f 16 43 42
f 17 18 44
f 17 44 43
f 18 19 45
f 18 45 44
f 19 20 46
f 19 46 45
f 20 21 47
f 20 47 46
f 21 22 48
f 21 48 47
f 22 23 49
f 22 49 48
f 23 24 50
f 23 50 49
f 24 25 51
f 24 51 50
f 25 26 52
f 25 52 51
f 26 1 27
f 26 27 52
g RoofSurface
f 27 28 29
f 27 29 30
f 27 30 31
f 27 31 32
f 27 32 33
f 27 33 34
f 27 34 35
f 27 35 36
f 27 36 37
f 27 37 38
f 27 38 39
f 27 39 40
f 27 40 41
f 27 41 42
f 27 42 43
f 27 43 44
f 27 44 45
f 27 45 46
f 27 46 47
f 27 47 48
f 27 48 49
f 27 49 50
f 27 50 51
f 27 51 52
g GroundSurface
f 1 2 3
f 1 3 4
f 1 4 5
f 1 5 6
f 1 6 7
f 1 7 8
f 1 8 9
f 1 9 10
f 1 10 11
f 1 11 12
f 1 12 13
f 1 13 14
f 1 14 15
f 1 15 16
f 1 16 17
f 1 17 18
f 1 18 19
f 1 19 20
f 1 20 21
f 1 21 22
f 1 22 23
f 1 23 24
f 1 24 25
f 1 25 26
