v -73.499115 -36.997601 -0.026840
v -73.227417 -37.468201 -0.026840
v -68.378433 -44.154995 -0.026840
v -67.891174 -44.784863 -0.026840
v -67.611183 -45.113861 -0.026840
v -67.561600 -45.133579 -0.026840
v -47.896606 -37.541378 -0.026840
v -47.620789 -37.397869 -0.026840
v -41.876118 -33.261795 -0.026840
v -40.205708 -31.990944 -0.026840
v -40.021740 -31.818218 -0.026840
v -40.114616 -31.682083 -0.026840
v -42.564137 -28.264946 -0.026840
v -48.582100 -19.929604 -0.026840
v -50.315262 -17.576612 -0.026840
v -52.197689 -15.053750 -0.026840
v -52.388248 -15.063988 -0.026840
v -53.560974 -15.856010 -0.026840
v -53.839531 -16.049490 -0.026840
v -54.736015 -16.698162 -0.026840
v -57.760887 -18.897913 -0.026840
v -59.211342 -19.956457 -0.026840
v -59.865028 -20.450447 -0.026840
v -60.144897 -20.674101 -0.026840
v -73.499115 -36.997601 16.328035
v -73.227417 -37.468201 16.328035
v -68.378433 -44.154995 16.328035
v -67.891174 -44.784863 16.328035
v -67.611183 -45.113861 16.328035
v -67.561600 -45.133579 16.328035
v -47.896606 -37.541378 16.328035
v -47.620789 -37.397869 16.328035
v -41.876118 -33.261795 16.328035
v -40.205708 -31.990944 16.328035
v -40.021740 -31.818218 16.328035
v -40.114616 -31.682083 16.328035
v -42.564137 -28.264946 16.328035
v -48.582100 -19.929604 16.328035
v -50.315262 -17.576612 16.328035
v -52.197689 -15.053750 16.328035
v -52.388248 -15.063988 16.328035
v -53.560974 -15.856010 16.328035
v -53.839531 -16.049490 16.328035
v -54.736015 -16.698162 16.328035
v -57.760887 -18.897913 16.328035
v -59.211342 -19.956457 16.328035
v -59.865028 -20.450447 16.328035
v -60.144897 -20.674101 16.328035
g WallSurface
f 1 2 26
f 1 26 25
f 2 3 27
f 2 27 26
f 3 4 28
f 3 28 27
f 4 5 29
f 4 29 28
f 5 6 30
f 5 30 29
f 6 7 31
f 6 31 30
f 7 8 32
f 7 32 31
f 8 9 33
f 8 33 32
f 9 10 34
f 9 34 33
f 10 11 35
f 10 35 34
f 11 12 36
f 11 36 35
f 12 13 37
f 12 37 36
f 13 14 38
f 13 38 37
f 14 15 39
f 14 39 38
f 15 16 40
f 15 40 39
f 16 17 41
f 16 41 40
f 17 18 42
f 17 42 41
f 18 19 43
f 18 43 42
f 19 20 44
f 19 44 43
f 20 21 45
f 20 45 44
f 21 22 46
f 21 46 45
f 22 23 47
f 22 47 46
f 23 24 48
f 23 48 47
f 24 1 25
f 24 25 48
g RoofSurface
f 25 26 27
f 25 27 28
f 25 28 29
f 25 29 30
f 25 30 31
f 25 31 32
f 25 32 33
f 25 33 34
f 25 34 35
f 25 35 36
f 25 36 37
f 25 37 38
f 25 38 39
f 25 39 40
f 25 40 41
f 25 41 42
f 25 42 43
f 25 43 44
f 25 44 45
f 25 45 46
f 25 46 47
f 25 47 48
g GroundSurface
f 1 2 3
f 1 3 4
f 1 4 5
f 1 5 6
f 1 6 7
f 1 7 8
f 1 8 9
f 1 9 10
f 1 10 11
f 1 11 12
f 1 12 13
f 1 13 14
f 1 14 15
f 1 15 16
f 1 16 17
f 1 17 18
f 1 18 19
f 1 19 20
f 1 20 21
f 1 21 22
f 1 22 23
f 1 23 24
