v -64.289757 -19.395531 -0.019275
v -62.042244 -25.581528 -0.019275
v -61.259140 -26.523859 -0.019275
v -60.494049 -27.352106 -0.019275
v -60.091496 -27.742699 -0.019275
v -59.193668 -28.596252 -0.019275
v -58.519421 -29.227251 -0.019275
v -58.418777 -29.320904 -0.019275
v -58.136173 -29.305876 -0.019275
v -51.972221 -27.549404 -0.019275
v -47.677818 -26.309242 -0.019275
v -46.413548 -25.925964 -0.019275
v -46.240444 -25.766769 -0.019275
v -46.216225 -25.733704 -0.019275
v -46.126961 -25.346279 -0.019275
v -45.794750 -23.102568 -0.019275
v -45.603001 -21.655712 -0.019275
v -45.005184 -15.466246 -0.019275
v -45.339928 -15.139853 -0.019275
v -46.959572 -14.304508 -0.019275
v -55.612160 -9.962045 -0.019275
v -57.061913 -9.272564 -0.019275
v -57.269749 -9.320521 -0.019275
v -58.743996 -11.268295 -0.019275
v -61.489006 -15.063245 -0.019275
v -63.186157 -17.437033 -0.019275
v -64.186150 -18.892881 -0.019275
v -64.289757 -19.395531 26.141644
v -62.042244 -25.581528 26.141644
v -61.259140 -26.523859 26.141644
v -60.494049 -27.352106 26.141644
v -60.091496 -27.742699 26.141644
v -59.193668 -28.596252 26.141644
v -58.519421 -29.227251 26.141644
v -58.418777 -29.320904 26.141644
v -58.136173 -29.305876 26.141644
v -51.972221 -27.549404 26.141644
v -47.677818 -26.309242 26.141644
v -46.413548 -25.925964 26.141644
v -46.240444 -25.766769 26.141644
v -46.216225 -25.733704 26.141644
v -46.126961 -25.346279 26.141644
v -45.794750 -23.102568 26.141644
v -45.603001 -21.655712 26.141644
v -45.005184 -15.466246 26.141644
v -45.339928 -15.139853 26.141644
v -46.959572 -14.304508 26.141644
v -55.612160 -9.962045 26.141644
v -57.061913 -9.272564 26.141644
v -57.269749 -9.320521 26.141644
v -58.743996 -11.268295 26.141644
v -61.489006 -15.063245 26.141644
v -63.186157 -17.437033 26.141644
v -64.186150 -18.892881 26.141644
g WallSurface
f 1 2 29
f 1 29 28
f 2 3 30
f 2 30 29
f 3 4 31
f 3 31 30
f 4 5 32
f 4 32 31
f 5 6 33
f 5 33 32
f 6 7 34
f 6 34 33
f 7 8 35
f 7 35 34
f 8 9 36
f 8 36 35
f 9 10 37
f 9 37 36
f 10 11 38
f 10 38 37
f 11 12 39
f 11 39 38
f 12 13 40
f 12 40 39
f 13 14 41
f 13 41 40
f 14 15 42
f 14 42 41
f 15 16 43
f 15 43 42
f 16 17 44
f 16 44 43
f 17 18 45
f 17 45 44
f 18 19 46
f 18 46 45
f 19 20 47
f 19 47 46
f 20 21 48
f 20 48 47
f 21 22 49
f 21 49 48
f 22 23 50
f 22 50 49
f 23 24 51
f 23 51 50
f 24 25 52
f 24 52 51
f 25 26 53
f 25 53 52
f 26 27 54
f 26 54 53
f 27 1 28
f 27 28 54
g RoofSurface
f 28 29 30
f 28 30 31
f 28 31 32
f 28 32 33
f 28 33 34
f 28 34 35
f 28 35 36
f 28 36 37
f 28 37 38
f 28 38 39
f 28 39 40
f 28 40 41
f 28 41 42
f 28 42 43
f 28 43 44
f 28 44 45
f 28 45 46
f 28 46 47
f 28 47 48
f 28 48 49
f 28 49 50
f 28 50 51
f 28 51 52
f 28 52 53
f 28 53 54
g GroundSurface
f 1 2 3
f 1 3 4
f 1 4 5
f 1 5 6
f 1 6 7
f 1 7 8
f 1 8 9
f 1 9 10
f 1 10 11
f 1 11 12
f 1 12 13
f 1 13 14
f 1 14 15
f 1 15 16
f 1 16 17
f 1 17 18
f 1 18 19
f 1 19 20
f 1 20 21
f 1 21 22
f 1 22 23
f 1 23 24
f 1 24 25
f 1 25 26
f 1 26 27
