v -28.000420 -13.003780 -0.011994
v -27.725647 -13.322773 -0.011994
v -25.949482 -14.285013 -0.011994
v -21.695614 -16.387726 -0.011994
v -16.480236 -18.957687 -0.011994
v -9.102810 -22.532009 -0.011994
v -4.858957 -24.561497 -0.011994
v 19.335001 -28.836323 -0.011994
v 19.628271 -28.838051 -0.011994
v 19.734655 -28.664507 -0.011994
v 20.072071 -28.061533 -0.011994
v 21.594770 -24.997116 -0.011994
v 22.394657 -23.275665 -0.011994
v 22.377108 -23.199518 -0.011994
v 21.590271 -22.371086 -0.011994
v 16.488569 -19.833187 -0.011994
v -20.904444 -1.502235 -0.011994
v -21.893007 -1.052152 -0.011994
v -22.212894 -1.029395 -0.011994
v -22.586117 -1.677516 -0.011994
v -27.788113 -12.370102 -0.011994
v -27.998339 -12.872704 -0.011994
v -28.000420 -13.003780 9.882558
v -27.725647 -13.322773 9.882558
v -25.949482 -14.285013 9.882558
v -21.695614 -16.387726 9.882558
v -16.480236 -18.957687 9.882558
v -9.102810 -22.532009 9.882558
v -4.858957 -24.561497 9.882558
v 19.335001 -28.836323 9.882558
v 19.628271 -28.838051 9.882558
v 19.734655 -28.664507 9.882558
v 20.072071 -28.061533 9.882558
v 21.594770 -24.997116 9.882558
v 22.394657 -23.275665 9.882558
v 22.377108 -23.199518 9.882558
v 21.590271 -22.371086 9.882558
v 16.488569 -19.833187 9.882558
v -20.904444 -1.502235 9.882558
v -21.893007 -1.052152 9.882558
v -22.212894 -1.029395 9.882558
v -22.586117 -1.677516 9.882558
v -27.788113 -12.370102 9.882558
v -27.998339 -12.872704 9.882558
g WallSurface
f 1 2 24
f 1 24 23
f 2 3 25
f 2 25 24
f 3 4 26
f 3 26 25
f 4 5 27
f 4 27 26
f 5 6 28
f 5 28 27
f 6 7 29
f 6 29 28
f 7 8 30
f 7 30 29
f 8 9 31
f 8 31 30
f 9 10 32
f 9 32 31
f 10 11 33
f 10 33 32
f 11 12 34
f 11 34 33
f 12 13 35
f 12 35 34
f 13 14 36
f 13 36 35
f 14 15 37
f 14 37 36
f 15 16 38
f 15 38 37
f 16 17 39
f 16 39 38
f 17 18 40
f 17 40 39
f 18 19 41
f 18 41 40
f 19 20 42
f 19 42 41
f 20 21 43
f 20 43 42
f 21 22 44
f 21 44 43
f 22 1 23
f 22 23 44
g RoofSurface
f 23 24 25
f 23 25 26
f 23 26 27
f 23 27 28
f 23 28 29
f 23 29 30
f 23 30 31
f 23 31 32
f 23 32 33
f 23 33 34
f 23 34 35
f 23 35 36
f 23 36 37
f 23 37 38
f 23 38 39
f 23 39 40
f 23 40 41
f 23 41 42
f 23 42 43
f 23 43 44
g GroundSurface
f 1 2 3
f 1 3 4
f 1 4 5
f 1 5 6
f 1 6 7
f 1 7 8
f 1 8 9
f 1 9 10
f 1 10 11
f 1 11 12
f 1 12 13
f 1 13 14
f 1 14 15
f 1 15 16
f 1 16 17
f 1 17 18
f 1 18 19
f 1 19 20
f 1 20 21
f 1 21 22
