v 27.113297 -33.747929 0.009406
v 27.136053 -33.977192 0.009406
v 27.650436 -35.498756 0.009406
v 28.063068 -36.472698 0.009406
v 29.193363 -39.071697 0.009406
v 29.677065 -40.148746 0.009406
v 30.248838 -41.346821 0.009406
v 30.420965 -41.661037 0.009406
v 30.587860 -41.735813 0.009406
v 34.702412 -43.081085 0.009406
v 37.444363 -43.876568 0.009406
v 39.327251 -44.416859 0.009406
v 40.281235 -44.631386 0.009406
v 41.004490 -44.788494 0.009406
v 41.099583 -44.773418 0.009406
v 41.354633 -44.727089 0.009406
v 43.330223 -43.349503 0.009406
v 44.857605 -42.220562 0.009406
v 45.023121 -41.977219 0.009406
v 45.071064 -41.897221 0.009406
v 45.173973 -41.629051 0.009406
v 45.602673 -39.949417 0.009406
v 46.676498 -35.143978 0.009406
v 47.454166 -31.581171 0.009406
v 47.419193 -31.113533 0.009406
v 46.942898 -30.381649 0.009406
v 44.949383 -27.434631 0.009406
v 43.409660 -25.194813 0.009406
v 41.649223 -22.681561 0.009406
v 41.409580 -22.621689 0.009406
v 41.265480 -22.609360 0.009406
v 40.518566 -22.668625 0.009406
v 40.121662 -22.702885 0.009406
v 38.911251 -22.823027 0.009406
v 29.522114 -23.954264 0.009406
v 28.821665 -24.181349 0.009406
v 28.666443 -24.387810 0.009406
v 28.007727 -28.190002 0.009406
v 27.407042 -31.802132 0.009406
v 27.113297 -33.747929 25.635571
v 27.136053 -33.977192 25.635571
v 27.650436 -35.498756 25.635571
v 28.063068 -36.472698 25.635571
v 29.193363 -39.071697 25.635571
v 29.677065 -40.148746 25.635571
v 30.248838 -41.346821 25.635571
v 30.420965 -41.661037 25.635571
v 30.587860 -41.735813 25.635571
v 34.702412 -43.081085 25.635571
v 37.444363 -43.876568 25.635571
v 39.327251 -44.416859 25.635571
v 40.281235 -44.631386 25.635571
v 41.004490 -44.788494 25.635571
v 41.099583 -44.773418 25.635571
v 41.354633 -44.727089 25.635571
v 43.330223 -43.349503 25.635571
v 44.857605 -42.220562 25.635571
v 45.023121 -41.977219 25.635571
v 45.071064 -41.897221 25.635571
v 45.173973 -41.629051 25.635571
v 45.602673 -39.949417 25.635571
v 46.676498 -35.143978 25.635571
v 47.454166 -31.581171 25.635571
v 47.419193 -31.113533 25.635571
v 46.942898 -30.381649 25.635571
v 44.949383 -27.434631 25.635571
v 43.409660 -25.194813 25.635571
v 41.649223 -22.681561 25.635571
v 41.409580 -22.621689 25.635571
v 41.265480 -22.609360 25.635571
v 40.518566 -22.668625 25.635571
v 40.121662 -22.702885 25.635571
v 38.911251 -22.823027 25.635571
v 29.522114 -23.954264 25.635571
v 28.821665 -24.181349 25.635571
v 28.666443 -24.387810 25.635571
v 28.007727 -28.190002 25.635571
v 27.407042 -31.802132 25.635571
g WallSurface
f 1 2 41
f 1 41 40
f 2 3 42
f 2 42 41
f 3 4 43
f 3 43 42
f 4 5 44
f 4 44 43
f 5 6 45
f 5 45 44
f 6 7 46
f 6 46 45
f 7 8 47
f 7 47 46
f 8 9 48
f 8 48 47
f 9 10 49
f 9 49 48
f 10 11 50
f 10 50 49
f 11 12 51
f 11 51 50
f 12 13 52
f 12 52 51
f 13 14 53
f 13 53 52
f 14 15 54
f 14 54 53
f 15 16 55
f 15 55 54
f 16 17 56
f 16 56 55
f 17 18 57
f 17 57 56
f 18 19 58
f 18 58 57
f 19 20 59
f 19 59 58
f 20 21 60
f 20 60 59
f 21 22 61
f 21 61 60
f 22 23 62
f 22 62 61
f 23 24 63
f 23 63 62
f 24 25 64
f 24 64 63
f 25 26 65
f 25 65 64
f 26 27 66
f 26 66 65
f 27 28 67
f 27 67 66
f 28 29 68
f 28 68 67
f 29 30 69
f 29 69 68
f 30 31 70
f 30 70 69
f 31 32 71
f 31 71 70
f 32 33 72
f 32 72 71
f 33 34 73
f 33 73 72
f 34 35 74
f 34 74 73
f 35 36 75
f 35 75 74
f 36 37 76
f 36 76 75
f 37 38 77
f 37 77 76
f 38 39 78
f 38 78 77
f 39 1 40
f 39 40 78
g RoofSurface
f 40 41 42
f 40 42 43
f 40 43 44
f 40 44 45
f 40 45 46
f 40 46 47
f 40 47 48
f 40 48 49
f 40 49 50
f 40 50 51
f 40 51 52
f 40 52 53
f 40 53 54
f 40 54 55
f 40 55 56
f 40 56 57
f 40 57 58
f 40 58 59
f 40 59 60
f 40 60 61
f 40 61 62
f 40 62 63
f 40 63 64
f 40 64 65
f 40 65 66
f 40 66 67
f 40 67 68
f 40 68 69
f 40 69 70
f 40 70 71
f 40 71 72
f 40 72 73
f 40 73 74
f 40 74 75
f 40 75 76
f 40 76 77
f 40 77 78
g GroundSurface
f 1 2 3
f 1 3 4
f 1 4 5
f 1 5 6
f 1 6 7
f 1 7 8
f 1 8 9
f 1 9 10
f 1 10 11
f 1 11 12
f 1 12 13
f 1 13 14
f 1 14 15
f 1 15 16
f 1 16 17
f 1 17 18
f 1 18 19
f 1 19 20
f 1 20 21
f 1 21 22
f 1 22 23
f 1 23 24
f 1 24 25
f 1 25 26
f 1 26 27
f 1 27 28
f 1 28 29
f 1 29 30
f 1 30 31
f 1 31 32
f 1 32 33
f 1 33 34
f 1 34 35
f 1 35 36
f 1 36 37
f 1 37 38
f 1 38 39
