v -56.120125 38.884914 -0.016300
v -55.771683 38.611706 -0.016300
v -55.416985 38.390121 -0.016300
v -50.744781 35.702328 -0.016300
v -26.419039 21.999887 -0.016300
v -24.951200 21.192829 -0.016300
v -23.688744 20.516626 -0.016300
v -23.081917 20.196468 -0.016300
v -22.256628 19.791929 -0.016300
v -21.972712 19.716318 -0.016300
v -21.159397 20.943300 -0.016300
v -18.535501 25.561188 -0.016300
v -13.419579 34.682205 -0.016300
v -12.642742 36.069187 -0.016300
v -12.444813 36.494633 -0.016300
v -12.309765 36.855461 -0.016300
v -12.273483 37.020645 -0.016300
v -12.342559 37.218235 -0.016300
v -15.207909 38.909920 -0.016300
v -43.588440 54.840672 -0.016300
v -46.007214 56.167946 -0.016300
v -46.365101 56.334431 -0.016300
v -46.798088 55.759308 -0.016300
v -47.093048 55.254963 -0.016300
v -48.371597 53.052162 -0.016300
v -50.949886 48.493790 -0.016300
v -52.948448 44.927704 -0.016300
v -54.575043 42.012154 -0.016300
v -55.375988 40.570118 -0.016300
v -56.038147 39.250019 -0.016300
v -56.097233 39.112305 -0.016300
v -56.120125 38.884914 27.242817
v -55.771683 38.611706 27.242817
v -55.416985 38.390121 27.242817
v -50.744781 35.702328 27.242817
v -26.419039 21.999887 27.242817
v -24.951200 21.192829 27.242817
v -23.688744 20.516626 27.242817
v -23.081917 20.196468 27.242817
v -22.256628 19.791929 27.242817
v -21.972712 19.716318 27.242817
v -21.159397 20.943300 27.242817
v -18.535501 25.561188 27.242817
v -13.419579 34.682205 27.242817
v -12.642742 36.069187 27.242817
v -12.444813 36.494633 27.242817
v -12.309765 36.855461 27.242817
v -12.273483 37.020645 27.242817
v -12.342559 37.218235 27.242817
v -15.207909 38.909920 27.242817
v -43.588440 54.840672 27.242817
v -46.007214 56.167946 27.242817
v -46.365101 56.334431 27.242817
v -46.798088 55.759308 27.242817
v -47.093048 55.254963 27.242817
v -48.371597 53.052162 27.242817
v -50.949886 48.493790 27.242817
v -52.948448 44.927704 27.242817
v -54.575043 42.012154 27.242817
v -55.375988 40.570118 27.242817
v -56.038147 39.250019 27.242817
v -56.097233 39.112305 27.242817
g WallSurface
f 1 2 33
f 1 33 32
f 2 3 34
f 2 34 33
f 3 4 35
f 3 35 34
f 4 5 36
f 4 36 35
f 5 6 37
f 5 37 36
f 6 7 38
f 6 38 37
f 7 8 39
f 7 39 38
f 8 9 40
f 8 40 39
f 9 10 41
f 9 41 40
f 10 11 42
f 10 42 41
f 11 12 43
f 11 43 42
f 12 13 44
f 12 44 43
f 13 14 45
f 13 45 44
f 14 15 46
f 14 46 45
f 15 16 47
f 15 47 46
f 16 17 48
f 16 48 47
f 17 18 49
f 17 49 48
f 18 19 50
f 18 50 49
f 19 20 51
f 19 51 50
f 20 21 52
f 20 52 51
f 21 22 53
f 21 53 52
f 22 23 54
f 22 54 53
f 23 24 55
f 23 55 54
f 24 25 56
f 24 56 55
f 25 26 57
f 25 57 56
f 26 27 58
f 26 58 57
f 27 28 59
f 27 59 58
f 28 29 60
f 28 60 59
f 29 30 61
f 29 61 60
f 30 31 62
f 30 62 61
f 31 1 32
f 31 32 62
g RoofSurface
f 32 33 34
f 32 34 35
f 32 35 36
f 32 36 37
f 32 37 38
f 32 38 39
f 32 39 40
f 32 40 41
f 32 41 42
f 32 42 43
f 32 43 44
f 32 44 45
f 32 45 46
f 32 46 47
f 32 47 48
f 32 48 49
f 32 49 50
f 32 50 51
f 32 51 52
f 32 52 53
f 32 53 54
f 32 54 55
f 32 55 56
f 32 56 57
f 32 57 58
f 32 58 59
f 32 59 60
f 32 60 61
f 32 61 62
g GroundSurface
f 1 2 3
f 1 3 4
f 1 4 5
f 1 5 6
f 1 6 7
f 1 7 8
f 1 8 9
f 1 9 10
f 1 10 11
f 1 11 12
f 1 12 13
f 1 13 14
f 1 14 15
f 1 15 16
f 1 16 17
f 1 17 18
f 1 18 19
f 1 19 20
f 1 20 21
f 1 21 22
f 1 22 23
f 1 23 24
f 1 24 25
f 1 25 26
f 1 26 27
f 1 27 28
f 1 28 29
f 1 29 30
f 1 30 31
