v -19.103600 -29.486100 -0.005902
v -12.318000 -19.389200 -0.005902
v -28.860200 -8.272100 -0.005902
v -35.645800 -18.369000 -0.005902
v -19.103600 -29.486100 28.225598
v -35.645800 -18.369000 28.225598
v -28.860200 -8.272100 28.225598
v -12.318000 -19.389200 28.225598
v -28.860200 -8.272100 33.749198
v -12.318000 -19.389200 33.749198
g WallSurface
f 4 1 5
f 4 5 6
f 2 3 7
f 2 7 8
f 8 7 9
f 8 9 10
f 1 2 8
f 1 8 5
f 5 8 10
f 4 3 7
f 4 7 6
f 6 7 9
g RoofSurface
f 6 5 10
f 6 10 9
g GroundSurface
f 1 2 3
f 1 3 4
