v 32.972000 -41.179500 -0.040437
v 31.412000 -59.425000 -0.040437
v 72.763200 -62.960400 -0.040437
v 74.323100 -44.715000 -0.040437
v 31.412000 -59.425000 3.363763
v 32.972000 -41.179500 3.363763
v 72.763200 -62.960400 3.363763
v 74.323100 -44.715000 3.363763
v 41.314725 -51.082227 12.690063
v 64.420425 -53.057723 12.690063
g WallSurface
f 1 2 5
f 1 5 6
f 2 3 7
f 2 7 5
f 3 4 8
f 3 8 7
f 4 1 6
f 4 6 8
g RoofSurface
f 6 5 9
f 7 8 10
f 5 7 10
f 5 10 9
f 8 6 9
f 8 9 10
g GroundSurface
f 1 2 3
f 1 3 4
