v -49.128994 -64.235443 -0.035629
v -49.082016 -65.020073 -0.035629
v -48.945858 -65.318375 -0.035629
v -47.877644 -65.642349 -0.035629
v -39.726212 -68.054344 -0.035629
v -39.385487 -68.097672 -0.035629
v -37.517170 -65.070221 -0.035629
v -31.748468 -55.537132 -0.035629
v -27.001877 -47.665936 -0.035629
v -26.862696 -47.369061 -0.035629
v -27.187216 -47.027462 -0.035629
v -33.513687 -41.746967 -0.035629
v -35.207825 -40.478352 -0.035629
v -35.311935 -40.485260 -0.035629
v -35.560581 -40.541111 -0.035629
v -35.833813 -40.679649 -0.035629
v -41.843819 -44.121712 -0.035629
v -46.002682 -46.537540 -0.035629
v -48.329590 -47.904083 -0.035629
v -48.445198 -48.090126 -0.035629
v -48.536102 -48.330444 -0.035629
v -48.552433 -48.419643 -0.035629
v -48.662323 -50.007809 -0.035629
v -48.759731 -51.727032 -0.035629
v -48.935249 -56.961113 -0.035629
v -49.128994 -64.235443 21.812220
v -49.082016 -65.020073 21.812220
v -48.945858 -65.318375 21.812220
v -47.877644 -65.642349 21.812220
v -39.726212 -68.054344 21.812220
v -39.385487 -68.097672 21.812220
v -37.517170 -65.070221 21.812220
v -31.748468 -55.537132 21.812220
v -27.001877 -47.665936 21.812220
v -26.862696 -47.369061 21.812220
v -27.187216 -47.027462 21.812220
v -33.513687 -41.746967 21.812220
v -35.207825 -40.478352 21.812220
v -35.311935 -40.485260 21.812220
v -35.560581 -40.541111 21.812220
v -35.833813 -40.679649 21.812220
v -41.843819 -44.121712 21.812220
v -46.002682 -46.537540 21.812220
v -48.329590 -47.904083 21.812220
v -48.445198 -48.090126 21.812220
v -48.536102 -48.330444 21.812220
v -48.552433 -48.419643 21.812220
v -48.662323 -50.007809 21.812220
v -48.759731 -51.727032 21.812220
v -48.935249 -56.961113 21.812220
g WallSurface
f 1 2 27
f 1 27 26
f 2 3 28
f 2 28 27
f 3 4 29
f 3 29 28
f 4 5 30
f 4 30 29
f 5 6 31
f 5 31 30
f 6 7 32
f 6 32 31
f 7 8 33
f 7 33 32
f 8 9 34
f 8 34 33
f 9 10 35
f 9 35 34
f 10 11 36
f 10 36 35
f 11 12 37
f 11 37 36
f 12 13 38
f 12 38 37
f 13 14 39
f 13 39 38
f 14 15 40
f 14 40 39
f 15 16 41
f 15 41 40
f 16 17 42
f 16 42 41
f 17 18 43
f 17 43 42
f 18 19 44
f 18 44 43
f 19 20 45
f 19 45 44
f 20 21 46
f 20 46 45
f 21 22 47
f 21 47 46
f 22 23 48
f 22 48 47
f 23 24 49
f 23 49 48
f 24 25 50
f 24 50 49
f 25 1 26
f 25 26 50
g RoofSurface
f 26 27 28
f 26 28 29
f 26 29 30
f 26 30 31
f 26 31 32
f 26 32 33
f 26 33 34
f 26 34 35
f 26 35 36
f 26 36 37
f 26 37 38
f 26 38 39
f 26 39 40
f 26 40 41
f 26 41 42
f 26 42 43
f 26 43 44
f 26 44 45
f 26 45 46
f 26 46 47
f 26 47 48
f 26 48 49
f 26 49 50
g GroundSurface
f 1 2 3
f 1 3 4
f 1 4 5
f 1 5 6
f 1 6 7
f 1 7 8
f 1 8 9
f 1 9 10
f 1 10 11
f 1 11 12
f 1 12 13
f 1 13 14
f 1 14 15
f 1 15 16
f 1 16 17
f 1 17 18
f 1 18 19
f 1 19 20
f 1 20 21
f 1 21 22
f 1 22 23
f 1 23 24
f 1 24 25
