v -42.522884 -0.037166 -0.020395
v -39.873131 -12.576500 -0.020395
v -38.796345 -13.172593 -0.020395
v -36.005383 -14.521195 -0.020395
v -35.754421 -14.639157 -0.020395
v -35.351486 -14.467211 -0.020395
v -35.102566 -14.029149 -0.020395
v -34.977142 -13.804337 -0.020395
v -25.499142 5.256931 -0.020395
v -23.823854 8.639406 -0.020395
v -23.285147 9.732177 -0.020395
v -22.716244 10.902843 -0.020395
v -22.295191 11.819314 -0.020395
v -22.266462 11.971457 -0.020395
v -22.621801 12.187646 -0.020395
v -24.146378 12.990694 -0.020395
v -26.590750 14.150566 -0.020395
v -38.031281 8.821195 -0.020395
v -38.141823 8.679927 -0.020395
v -38.235607 8.526684 -0.020395
v -38.309128 8.392177 -0.020395
v -40.226273 4.660377 -0.020395
v -42.022938 0.996094 -0.020395
v -42.522884 -0.037166 15.454568
v -39.873131 -12.576500 15.454568
v -38.796345 -13.172593 15.454568
v -36.005383 -14.521195 15.454568
v -35.754421 -14.639157 15.454568
v -35.351486 -14.467211 15.454568
v -35.102566 -14.029149 15.454568
v -34.977142 -13.804337 15.454568
v -25.499142 5.256931 15.454568
v -23.823854 8.639406 15.454568
v -23.285147 9.732177 15.454568
v -22.716244 10.902843 15.454568
v -22.295191 11.819314 15.454568
v -22.266462 11.971457 15.454568
v -22.621801 12.187646 15.454568
v -24.146378 12.990694 15.454568
v -26.590750 14.150566 15.454568
v -38.031281 8.821195 15.454568
v -38.141823 8.679927 15.454568
v -38.235607 8.526684 15.454568
v -38.309128 8.392177 15.454568
v -40.226273 4.660377 15.454568
v -42.022938 0.996094 15.454568
g WallSurface
f 1 2 25
f 1 25 24
f 2 3 26
f 2 26 25
f 3 4 27
f 3 27 26
f 4 5 28
f 4 28 27
f 5 6 29
f 5 29 28
f 6 7 30
f 6 30 29
f 7 8 31
f 7 31 30
f 8 9 32
f 8 32 31
f 9 10 33
f 9 33 32
f 10 11 34
f 10 34 33
f 11 12 35
f 11 35 34
f 12 13 36
f 12 36 35
f 13 14 37
f 13 37 36
f 14 15 38
f 14 38 37
f 15 16 39
f 15 39 38
f 16 17 40
f 16 40 39
f 17 18 41
f 17 41 40
f 18 19 42
f 18 42 41
f 19 20 43
f 19 43 42
f 20 21 44
f 20 44 43
f 21 22 45
f 21 45 44
f 22 23 46
f 22 46 45
f 23 1 24
f 23 24 46
g RoofSurface
f 24 25 26
f 24 26 27
f 24 27 28
f 24 28 29
f 24 29 30
f 24 30 31
f 24 31 32
f 24 32 33
f 24 33 34
f 24 34 35
f 24 35 36
f 24 36 37
f 24 37 38
f 24 38 39
f 24 39 40
f 24 40 41
f 24 41 42
f 24 42 43
f 24 43 44
f 24 44 45
f 24 45 46
g GroundSurface
f 1 2 3
f 1 3 4
f 1 4 5
f 1 5 6
f 1 6 7
f 1 7 8
f 1 8 9
f 1 9 10
f 1 10 11
f 1 11 12
f 1 12 13
f 1 13 14
f 1 14 15
f 1 15 16
f 1 16 17
f 1 17 18
f 1 18 19
f 1 19 20
f 1 20 21
f 1 21 22
f 1 22 23
