v -74.615944 22.308699 -0.067012
v -73.889442 19.821640 -0.067012
v -69.804108 6.813251 -0.067012
v -68.358177 2.256915 -0.067012
v -66.748863 -2.796503 -0.067012
v -66.679604 -2.840579 -0.067012
v -66.250961 -2.742614 -0.067012
v -65.406639 -2.500209 -0.067012
v -63.064812 -1.788652 -0.067012
v -44.600182 3.990322 -0.067012
v -41.383595 5.051755 -0.067012
v -41.153564 5.135281 -0.067012
v -41.109318 5.310610 -0.067012
v -41.158009 5.531972 -0.067012
v -41.454235 6.560229 -0.067012
v -43.935287 14.503130 -0.067012
v -47.529064 26.001635 -0.067012
v -48.943687 30.383038 -0.067012
v -48.980160 30.491692 -0.067012
v -49.043079 30.593756 -0.067012
v -49.302704 30.638988 -0.067012
v -50.137981 30.418390 -0.067012
v -50.564369 30.294384 -0.067012
v -57.468567 28.135733 -0.067012
v -74.391411 22.825865 -0.067012
v -74.545029 22.709852 -0.067012
v -74.615944 22.308699 14.756284
v -73.889442 19.821640 14.756284
v -69.804108 6.813251 14.756284
v -68.358177 2.256915 14.756284
v -66.748863 -2.796503 14.756284
v -66.679604 -2.840579 14.756284
v -66.250961 -2.742614 14.756284
v -65.406639 -2.500209 14.756284
v -63.064812 -1.788652 14.756284
v -44.600182 3.990322 14.756284
v -41.383595 5.051755 14.756284
v -41.153564 5.135281 14.756284
v -41.109318 5.310610 14.756284
v -41.158009 5.531972 14.756284
v -41.454235 6.560229 14.756284
v -43.935287 14.503130 14.756284
v -47.529064 26.001635 14.756284
v -48.943687 30.383038 14.756284
v -48.980160 30.491692 14.756284
v -49.043079 30.593756 14.756284
v -49.302704 30.638988 14.756284
v -50.137981 30.418390 14.756284
v -50.564369 30.294384 14.756284
v -57.468567 28.135733 14.756284
v -74.391411 22.825865 14.756284
v -74.545029 22.709852 14.756284
g WallSurface
f 1 2 28
f 1 28 27
f 2 3 29
f 2 29 28
f 3 4 30
f 3 30 29
f 4 5 31
f 4 31 30
f 5 6 32
f 5 32 31
f 6 7 33
f 6 33 32
f 7 8 34
f 7 34 33
f 8 9 35
f 8 35 34
f 9 10 36
f 9 36 35
f 10 11 37
f 10 37 36
f 11 12 38
f 11 38 37
f 12 13 39
f 12 39 38
f 13 14 40
f 13 40 39
f 14 15 41
f 14 41 40
f 15 16 42
f 15 42 41
f 16 17 43
f 16 43 42
f 17 18 44
f 17 44 43
f 18 19 45
f 18 45 44
f 19 20 46
f 19 46 45
f 20 21 47
f 20 47 46
f 21 22 48
f 21 48 47
f 22 23 49
f 22 49 48
f 23 24 50
f 23 50 49
f 24 25 51
f 24 51 50
f 25 26 52
f 25 52 51
f 26 1 27
f 26 27 52
g RoofSurface
f 27 28 29
f 27 29 30
f 27 30 31
f 27 31 32
f 27 32 33
f 27 33 34
f 27 34 35
f 27 35 36
f 27 36 37
f 27 37 38
f 27 38 39
f 27 39 40
f 27 40 41
f 27 41 42
f 27 42 43
f 27 43 44
f 27 44 45
f 27 45 46
f 27 46 47
f 27 47 48
f 27 48 49
f 27 49 50
f 27 50 51
f 27 51 52
g GroundSurface
f 1 2 3
f 1 3 4
f 1 4 5
f 1 5 6
f 1 6 7
f 1 7 8
f 1 8 9
f 1 9 10
f 1 10 11
f 1 11 12
f 1 12 13
f 1 13 14
f 1 14 15
f 1 15 16
f 1 16 17
f 1 17 18
f 1 18 19
f 1 19 20
f 1 20 21
f 1 21 22
f 1 22 23
f 1 23 24
f 1 24 25
f 1 25 26
