v -43.901459 -45.556931 0.014581
v -42.753193 -48.728287 0.014581
v -35.167957 -58.760807 0.014581
v -30.372421 -58.849930 0.014581
v -30.212175 -58.791851 0.014581
v -22.904930 -55.441978 0.014581
v -14.713176 -48.094433 0.014581
v -19.987015 -44.555450 0.014581
v -30.777121 -44.358421 0.014581
v -42.712372 -44.249527 0.014581
v -43.595161 -44.282932 0.014581
v -43.901459 -45.556931 3.254249
v -42.753193 -48.728287 3.254249
v -35.167957 -58.760807 3.254249
v -30.372421 -58.849930 3.254249
v -30.212175 -58.791851 3.254249
v -22.904930 -55.441978 3.254249
v -14.713176 -48.094433 3.254249
v -19.987015 -44.555450 3.254249
v -30.777121 -44.358421 3.254249
v -42.712372 -44.249527 3.254249
v -43.595161 -44.282932 3.254249
g WallSurface
f 1 2 13
f 1 13 12
f 2 3 14
f 2 14 13
f 3 4 15
f 3 15 14
f 4 5 16
f 4 16 15
f 5 6 17
f 5 17 16
f 6 7 18
f 6 18 17
f 7 8 19
f 7 19 18
f 8 9 20
f 8 20 19
f 9 10 21
f 9 21 20
f 10 11 22
f 10 22 21
f 11 1 12
f 11 12 22
g RoofSurface
f 12 13 14
f 12 14 15
f 12 15 16
f 12 16 17
f 12 17 18
f 12 18 19
f 12 19 20
f 12 20 21
f 12 21 22
g GroundSurface
f 1 2 3
f 1 3 4
f 1 4 5
f 1 5 6
f 1 6 7
f 1 7 8
f 1 8 9
f 1 9 10
f 1 10 11
