v -28.151566 -13.130597 -0.085100
v -27.989477 -13.276303 -0.085100
v -26.051376 -14.262049 -0.085100
v -16.480236 -18.957687 -0.085100
v -5.500364 -24.303804 -0.085100
v -4.016308 -24.959763 -0.085100
v -2.375786 -25.239815 -0.085100
v 19.610546 -28.895378 -0.085100
v 20.072071 -28.061533 -0.085100
v 21.594770 -24.997116 -0.085100
v 22.394657 -23.275665 -0.085100
v 22.473244 -23.007618 -0.085100
v 22.317305 -22.756073 -0.085100
v 21.590271 -22.371086 -0.085100
v 19.462883 -21.289562 -0.085100
v -20.904444 -1.502235 -0.085100
v -21.893007 -1.052152 -0.085100
v -22.212894 -1.029395 -0.085100
v -22.586117 -1.677516 -0.085100
v -27.127478 -11.000355 -0.085100
v -27.788113 -12.370102 -0.085100
v -28.151566 -13.130597 9.882558
v -27.989477 -13.276303 9.882558
v -26.051376 -14.262049 9.882558
v -16.480236 -18.957687 9.882558
v -5.500364 -24.303804 9.882558
v -4.016308 -24.959763 9.882558
v -2.375786 -25.239815 9.882558
v 19.610546 -28.895378 9.882558
v 20.072071 -28.061533 9.882558
v 21.594770 -24.997116 9.882558
v 22.394657 -23.275665 9.882558
v 22.473244 -23.007618 9.882558
v 22.317305 -22.756073 9.882558
v 21.590271 -22.371086 9.882558
v 19.462883 -21.289562 9.882558
v -20.904444 -1.502235 9.882558
v -21.893007 -1.052152 9.882558
v -22.212894 -1.029395 9.882558
v -22.586117 -1.677516 9.882558
v -27.127478 -11.000355 9.882558
v -27.788113 -12.370102 9.882558
g WallSurface
f 1 2 23
f 1 23 22
f 2 3 24
f 2 24 23
f 3 4 25
f 3 25 24
f 4 5 26
f 4 26 25
f 5 6 27
f 5 27 26
f 6 7 28
f 6 28 27
f 7 8 29
f 7 29 28
f 8 9 30
f 8 30 29
f 9 10 31
f 9 31 30
f 10 11 32
f 10 32 31
f 11 12 33
f 11 33 32
f 12 13 34
f 12 34 33
f 13 14 35
f 13 35 34
f 14 15 36
f 14 36 35
f 15 16 37
f 15 37 36
f 16 17 38
f 16 38 37
f 17 18 39
f 17 39 38
f 18 19 40
f 18 40 39
f 19 20 41
f 19 41 40
f 20 21 42
f 20 42 41
f 21 1 22
f 21 22 42
g RoofSurface
f 22 23 24
f 22 24 25
f 22 25 26
f 22 26 27
f 22 27 28
f 22 28 29
f 22 29 30
f 22 30 31
f 22 31 32
f 22 32 33
f 22 33 34
f 22 34 35
f 22 35 36
f 22 36 37
f 22 37 38
f 22 38 39
f 22 39 40
f 22 40 41
f 22 41 42
g GroundSurface
f 1 2 3
f 1 3 4
f 1 4 5
f 1 5 6
f 1 6 7
f 1 7 8
f 1 8 9
f 1 9 10
f 1 10 11
f 1 11 12
f 1 12 13
f 1 13 14
f 1 14 15
f 1 15 16
f 1 16 17
f 1 17 18
f 1 18 19
f 1 19 20
f 1 20 21
