v -74.655602 22.633291 -0.067012
v -74.615944 22.308699 -0.067012
v -74.201935 20.819555 -0.067012
v -73.889442 19.821640 -0.067012
v -69.804108 6.813251 -0.067012
v -66.748863 -2.796503 -0.067012
v -66.679604 -2.840579 -0.067012
v -66.312683 -2.775520 -0.067012
v -63.064812 -1.788652 -0.067012
v -41.088135 5.106905 -0.067012
v -41.105732 5.460715 -0.067012
v -45.863186 20.682962 -0.067012
v -47.529064 26.001635 -0.067012
v -48.943687 30.383038 -0.067012
v -48.980160 30.491692 -0.067012
v -49.026962 30.610287 -0.067012
v -49.206974 30.637381 -0.067012
v -49.302704 30.638988 -0.067012
v -49.331253 30.636772 -0.067012
v -50.137981 30.418390 -0.067012
v -50.564369 30.294384 -0.067012
v -57.468567 28.135733 -0.067012
v -74.391411 22.825865 -0.067012
v -74.655602 22.633291 14.756284
v -74.615944 22.308699 14.756284
v -74.201935 20.819555 14.756284
v -73.889442 19.821640 14.756284
v -69.804108 6.813251 14.756284
v -66.748863 -2.796503 14.756284
v -66.679604 -2.840579 14.756284
v -66.312683 -2.775520 14.756284
v -63.064812 -1.788652 14.756284
v -41.088135 5.106905 14.756284
v -41.105732 5.460715 14.756284
v -45.863186 20.682962 14.756284
v -47.529064 26.001635 14.756284
v -48.943687 30.383038 14.756284
v -48.980160 30.491692 14.756284
v -49.026962 30.610287 14.756284
v -49.206974 30.637381 14.756284
v -49.302704 30.638988 14.756284
v -49.331253 30.636772 14.756284
v -50.137981 30.418390 14.756284
v -50.564369 30.294384 14.756284
v -57.468567 28.135733 14.756284
v -74.391411 22.825865 14.756284
g WallSurface
f 1 2 25
f 1 25 24
f 2 3 26
f 2 26 25
f 3 4 27
f 3 27 26
f 4 5 28
f 4 28 27
f 5 6 29
f 5 29 28
f 6 7 30
f 6 30 29
f 7 8 31
f 7 31 30
f 8 9 32
f 8 32 31
f 9 10 33
f 9 33 32
f 10 11 34
f 10 34 33
f 11 12 35
f 11 35 34
f 12 13 36
f 12 36 35
f 13 14 37
f 13 37 36
f 14 15 38
f 14 38 37
f 15 16 39
f 15 39 38
f 16 17 40
f 16 40 39
f 17 18 41
f 17 41 40
f 18 19 42
f 18 42 41
f 19 20 43
f 19 43 42
f 20 21 44
f 20 44 43
f 21 22 45
f 21 45 44
f 22 23 46
f 22 46 45
f 23 1 24
f 23 24 46
g RoofSurface
f 24 25 26
f 24 26 27
f 24 27 28
f 24 28 29
f 24 29 30
f 24 30 31
f 24 31 32
f 24 32 33
f 24 33 34
f 24 34 35
f 24 35 36
f 24 36 37
f 24 37 38
f 24 38 39
f 24 39 40
f 24 40 41
f 24 41 42
f 24 42 43
f 24 43 44
f 24 44 45
f 24 45 46
g GroundSurface
f 1 2 3
f 1 3 4
f 1 4 5
f 1 5 6
f 1 6 7
f 1 7 8
f 1 8 9
f 1 9 10
f 1 10 11
f 1 11 12
f 1 12 13
f 1 13 14
f 1 14 15
f 1 15 16
f 1 16 17
f 1 17 18
f 1 18 19
f 1 19 20
f 1 20 21
f 1 21 22
f 1 22 23
