v -49.128994 -64.235443 -0.035629
v -49.082016 -65.020073 -0.035629
v -48.945858 -65.318375 -0.035629
v -47.877644 -65.642349 -0.035629
v -39.726212 -68.054344 -0.035629
v -39.385487 -68.097672 -0.035629
v -37.517170 -65.070221 -0.035629
v -27.726490 -48.950138 -0.035629
v -27.001877 -47.665936 -0.035629
v -26.862696 -47.369061 -0.035629
v -27.187216 -47.027462 -0.035629
v -27.464346 -46.737595 -0.035629
v -29.745331 -44.819695 -0.035629
v -33.513687 -41.746967 -0.035629
v -35.002567 -40.607296 -0.035629
v -35.207825 -40.478352 -0.035629
v -35.272232 -40.451363 -0.035629
v -35.314201 -40.455406 -0.035629
v -35.560581 -40.541111 -0.035629
v -35.833813 -40.679649 -0.035629
v -41.695091 -44.010479 -0.035629
v -45.420826 -46.189751 -0.035629
v -48.329590 -47.904083 -0.035629
v -48.465607 -48.044540 -0.035629
v -48.537514 -48.153820 -0.035629
v -48.673576 -48.646755 -0.035629
v -48.935249 -56.961113 -0.035629
v -49.128994 -64.235443 21.812220
v -49.082016 -65.020073 21.812220
v -48.945858 -65.318375 21.812220
v -47.877644 -65.642349 21.812220
v -39.726212 -68.054344 21.812220
v -39.385487 -68.097672 21.812220
v -37.517170 -65.070221 21.812220
v -27.726490 -48.950138 21.812220
v -27.001877 -47.665936 21.812220
v -26.862696 -47.369061 21.812220
v -27.187216 -47.027462 21.812220
v -27.464346 -46.737595 21.812220
v -29.745331 -44.819695 21.812220
v -33.513687 -41.746967 21.812220
v -35.002567 -40.607296 21.812220
v -35.207825 -40.478352 21.812220
v -35.272232 -40.451363 21.812220
v -35.314201 -40.455406 21.812220
v -35.560581 -40.541111 21.812220
v -35.833813 -40.679649 21.812220
v -41.695091 -44.010479 21.812220
v -45.420826 -46.189751 21.812220
v -48.329590 -47.904083 21.812220
v -48.465607 -48.044540 21.812220
v -48.537514 -48.153820 21.812220
v -48.673576 -48.646755 21.812220
v -48.935249 -56.961113 21.812220
g WallSurface
f 1 2 29
f 1 29 28
f 2 3 30
f 2 30 29
f 3 4 31
f 3 31 30
f 4 5 32
f 4 32 31
f 5 6 33
f 5 33 32
f 6 7 34
f 6 34 33
f 7 8 35
f 7 35 34
f 8 9 36
f 8 36 35
f 9 10 37
f 9 37 36
f 10 11 38
f 10 38 37
f 11 12 39
f 11 39 38
f 12 13 40
f 12 40 39
f 13 14 41
f 13 41 40
f 14 15 42
f 14 42 41
f 15 16 43
f 15 43 42
f 16 17 44
f 16 44 43
f 17 18 45
f 17 45 44
f 18 19 46
f 18 46 45
f 19 20 47
f 19 47 46
f 20 21 48
f 20 48 47
f 21 22 49
f 21 49 48
f 22 23 50
f 22 50 49
f 23 24 51
f 23 51 50
f 24 25 52
f 24 52 51
f 25 26 53
f 25 53 52
f 26 27 54
f 26 54 53
f 27 1 28
f 27 28 54
g RoofSurface
f 28 29 30
f 28 30 31
f 28 31 32
f 28 32 33
f 28 33 34
f 28 34 35
f 28 35 36
f 28 36 37
f 28 37 38
f 28 38 39
f 28 39 40
f 28 40 41
f 28 41 42
f 28 42 43
f 28 43 44
f 28 44 45
f 28 45 46
f 28 46 47
f 28 47 48
f 28 48 49
f 28 49 50
f 28 50 51
f 28 51 52
f 28 52 53
f 28 53 54
g GroundSurface
f 1 2 3
f 1 3 4
f 1 4 5
f 1 5 6
f 1 6 7
f 1 7 8
f 1 8 9
f 1 9 10
f 1 10 11
f 1 11 12
f 1 12 13
f 1 13 14
f 1 14 15
f 1 15 16
f 1 16 17
f 1 17 18
f 1 18 19
f 1 19 20
f 1 20 21
f 1 21 22
f 1 22 23
f 1 23 24
f 1 24 25
f 1 25 26
f 1 26 27
