v 33.433617 25.036995 -0.019514
v 33.538296 24.918152 -0.019514
v 33.934608 24.557491 -0.019514
v 36.963825 22.135977 -0.019514
v 38.125378 21.257551 -0.019514
v 38.368618 21.138977 -0.019514
v 39.260895 20.738968 -0.019514
v 46.338234 17.834700 -0.019514
v 46.846634 17.706438 -0.019514
v 47.234138 17.675495 -0.019514
v 53.469944 17.224781 -0.019514
v 58.638561 16.912512 -0.019514
v 58.775959 17.027777 -0.019514
v 58.845272 17.118710 -0.019514
v 58.466797 19.552608 -0.019514
v 58.025120 21.459555 -0.019514
v 57.894650 21.986362 -0.019514
v 57.759750 22.473469 -0.019514
v 57.055847 24.392427 -0.019514
v 56.855770 24.667715 -0.019514
v 56.814823 24.715372 -0.019514
v 56.796520 24.730528 -0.019514
v 55.680573 25.211552 -0.019514
v 55.158176 25.432144 -0.019514
v 53.376030 26.086405 -0.019514
v 51.724899 26.661144 -0.019514
v 51.047047 26.889128 -0.019514
v 50.487122 27.075375 -0.019514
v 49.508137 27.388628 -0.019514
v 48.955883 27.372580 -0.019514
v 47.718254 27.282135 -0.019514
v 45.674725 27.131830 -0.019514
v 39.163872 26.600060 -0.019514
v 38.165169 26.493944 -0.019514
v 37.151974 26.370426 -0.019514
v 36.881226 26.298904 -0.019514
v 33.992805 25.267075 -0.019514
v 33.433617 25.036995 29.847002
v 33.538296 24.918152 29.847002
v 33.934608 24.557491 29.847002
v 36.963825 22.135977 29.847002
v 38.125378 21.257551 29.847002
v 38.368618 21.138977 29.847002
v 39.260895 20.738968 29.847002
v 46.338234 17.834700 29.847002
v 46.846634 17.706438 29.847002
v 47.234138 17.675495 29.847002
v 53.469944 17.224781 29.847002
v 58.638561 16.912512 29.847002
v 58.775959 17.027777 29.847002
v 58.845272 17.118710 29.847002
v 58.466797 19.552608 29.847002
v 58.025120 21.459555 29.847002
v 57.894650 21.986362 29.847002
v 57.759750 22.473469 29.847002
v 57.055847 24.392427 29.847002
v 56.855770 24.667715 29.847002
v 56.814823 24.715372 29.847002
v 56.796520 24.730528 29.847002
v 55.680573 25.211552 29.847002
v 55.158176 25.432144 29.847002
v 53.376030 26.086405 29.847002
v 51.724899 26.661144 29.847002
v 51.047047 26.889128 29.847002
v 50.487122 27.075375 29.847002
v 49.508137 27.388628 29.847002
v 48.955883 27.372580 29.847002
v 47.718254 27.282135 29.847002
v 45.674725 27.131830 29.847002
v 39.163872 26.600060 29.847002
v 38.165169 26.493944 29.847002
v 37.151974 26.370426 29.847002
v 36.881226 26.298904 29.847002
v 33.992805 25.267075 29.847002
g WallSurface
f 1 2 39
f 1 39 38
f 2 3 40
f 2 40 39
f 3 4 41
f 3 41 40
f 4 5 42
f 4 42 41
f 5 6 43
f 5 43 42
f 6 7 44
f 6 44 43
f 7 8 45
f 7 45 44
f 8 9 46
f 8 46 45
f 9 10 47
f 9 47 46
f 10 11 48
f 10 48 47
f 11 12 49
f 11 49 48
f 12 13 50
f 12 50 49
f 13 14 51
f 13 51 50
f 14 15 52
f 14 52 51
f 15 16 53
f 15 53 52
f 16 17 54
f 16 54 53
f 17 18 55
f 17 55 54
f 18 19 56
f 18 56 55
f 19 20 57
f 19 57 56
f 20 21 58
f 20 58 57
f 21 22 59
f 21 59 58
f 22 23 60
f 22 60 59
f 23 24 61
f 23 61 60
f 24 25 62
f 24 62 61
f 25 26 63
f 25 63 62
f 26 27 64
f 26 64 63
f 27 28 65
f 27 65 64
f 28 29 66
f 28 66 65
f 29 30 67
f 29 67 66
f 30 31 68
f 30 68 67
f 31 32 69
f 31 69 68
f 32 33 70
f 32 70 69
f 33 34 71
f 33 71 70
f 34 35 72
f 34 72 71
f 35 36 73
f 35 73 72
f 36 37 74
f 36 74 73
f 37 1 38
f 37 38 74
g RoofSurface
f 38 39 40
f 38 40 41
f 38 41 42
f 38 42 43
f 38 43 44
f 38 44 45
f 38 45 46
f 38 46 47
f 38 47 48
f 38 48 49
f 38 49 50
f 38 50 51
f 38 51 52
f 38 52 53
f 38 53 54
f 38 54 55
f 38 55 56
f 38 56 57
f 38 57 58
f 38 58 59
f 38 59 60
f 38 60 61
f 38 61 62
f 38 62 63
f 38 63 64
f 38 64 65
f 38 65 66
f 38 66 67
f 38 67 68
f 38 68 69
f 38 69 70
f 38 70 71
f 38 71 72
f 38 72 73
f 38 73 74
g GroundSurface
f 1 2 3
f 1 3 4
f 1 4 5
f 1 5 6
f 1 6 7
f 1 7 8
f 1 8 9
f 1 9 10
f 1 10 11
f 1 11 12
f 1 12 13
f 1 13 14
f 1 14 15
f 1 15 16
f 1 16 17
f 1 17 18
f 1 18 19
f 1 19 20
f 1 20 21
f 1 21 22
f 1 22 23
f 1 23 24
f 1 24 25
f 1 25 26
f 1 26 27
f 1 27 28
f 1 28 29
f 1 29 30
f 1 30 31
f 1 31 32
f 1 32 33
f 1 33 34
f 1 34 35
f 1 35 36
f 1 36 37
