v -56.120125 38.884914 -0.079274
v -55.771683 38.611706 -0.079274
v -55.416985 38.390121 -0.079274
v -50.744781 35.702328 -0.079274
v -37.390724 28.140800 -0.079274
v -26.419039 21.999887 -0.079274
v -24.951200 21.192829 -0.079274
v -23.688744 20.516626 -0.079274
v -23.081917 20.196468 -0.079274
v -22.120041 19.690681 -0.079274
v -21.972237 19.676977 -0.079274
v -21.159397 20.943300 -0.079274
v -18.535501 25.561188 -0.079274
v -13.419579 34.682205 -0.079274
v -12.642742 36.069187 -0.079274
v -12.444813 36.494633 -0.079274
v -12.309765 36.855461 -0.079274
v -12.273483 37.020645 -0.079274
v -12.342559 37.218235 -0.079274
v -15.207909 38.909920 -0.079274
v -43.148422 54.600441 -0.079274
v -46.007214 56.167946 -0.079274
v -46.365101 56.334431 -0.079274
v -46.551998 56.106659 -0.079274
v -46.798088 55.759308 -0.079274
v -47.093048 55.254963 -0.079274
v -48.371597 53.052162 -0.079274
v -50.949886 48.493790 -0.079274
v -52.948448 44.927704 -0.079274
v -54.575043 42.012154 -0.079274
v -55.375988 40.570118 -0.079274
v -56.038147 39.250019 -0.079274
v -56.097233 39.112305 -0.079274
v -56.120125 38.884914 27.242817
v -55.771683 38.611706 27.242817
v -55.416985 38.390121 27.242817
v -50.744781 35.702328 27.242817
v -37.390724 28.140800 27.242817
v -26.419039 21.999887 27.242817
v -24.951200 21.192829 27.242817
v -23.688744 20.516626 27.242817
v -23.081917 20.196468 27.242817
v -22.120041 19.690681 27.242817
v -21.972237 19.676977 27.242817
v -21.159397 20.943300 27.242817
v -18.535501 25.561188 27.242817
v -13.419579 34.682205 27.242817
v -12.642742 36.069187 27.242817
v -12.444813 36.494633 27.242817
v -12.309765 36.855461 27.242817
v -12.273483 37.020645 27.242817
v -12.342559 37.218235 27.242817
v -15.207909 38.909920 27.242817
v -43.148422 54.600441 27.242817
v -46.007214 56.167946 27.242817
v -46.365101 56.334431 27.242817
v -46.551998 56.106659 27.242817
v -46.798088 55.759308 27.242817
v -47.093048 55.254963 27.242817
v -48.371597 53.052162 27.242817
v -50.949886 48.493790 27.242817
v -52.948448 44.927704 27.242817
v -54.575043 42.012154 27.242817
v -55.375988 40.570118 27.242817
v -56.038147 39.250019 27.242817
v -56.097233 39.112305 27.242817
g WallSurface
f 1 2 35
f 1 35 34
f 2 3 36
f 2 36 35
f 3 4 37
f 3 37 36
f 4 5 38
f 4 38 37
f 5 6 39
f 5 39 38
f 6 7 40
f 6 40 39
f 7 8 41
f 7 41 40
f 8 9 42
f 8 42 41
f 9 10 43
f 9 43 42
f 10 11 44
f 10 44 43
f 11 12 45
f 11 45 44
f 12 13 46
f 12 46 45
f 13 14 47
f 13 47 46
f 14 15 48
f 14 48 47
f 15 16 49
f 15 49 48
f 16 17 50
f 16 50 49
f 17 18 51
f 17 51 50
f 18 19 52
f 18 52 51
f 19 20 53
f 19 53 52
f 20 21 54
f 20 54 53
f 21 22 55
f 21 55 54
f 22 23 56
f 22 56 55
f 23 24 57
f 23 57 56
f 24 25 58
f 24 58 57
f 25 26 59
f 25 59 58
f 26 27 60
f 26 60 59
f 27 28 61
f 27 61 60
f 28 29 62
f 28 62 61
f 29 30 63
f 29 63 62
f 30 31 64
f 30 64 63
f 31 32 65
f 31 65 64
f 32 33 66
f 32 66 65
f 33 1 34
f 33 34 66
g RoofSurface
f 34 35 36
f 34 36 37
f 34 37 38
f 34 38 39
f 34 39 40
f 34 40 41
f 34 41 42
f 34 42 43
f 34 43 44
f 34 44 45
f 34 45 46
f 34 46 47
f 34 47 48
f 34 48 49
f 34 49 50
f 34 50 51
f 34 51 52
f 34 52 53
f 34 53 54
f 34 54 55
f 34 55 56
f 34 56 57
f 34 57 58
f 34 58 59
f 34 59 60
f 34 60 61
f 34 61 62
f 34 62 63
f 34 63 64
f 34 64 65
f 34 65 66
g GroundSurface
f 1 2 3
f 1 3 4
f 1 4 5
f 1 5 6
f 1 6 7
f 1 7 8
f 1 8 9
f 1 9 10
f 1 10 11
f 1 11 12
f 1 12 13
f 1 13 14
f 1 14 15
f 1 15 16
f 1 16 17
f 1 17 18
f 1 18 19
f 1 19 20
f 1 20 21
f 1 21 22
f 1 22 23
f 1 23 24
f 1 24 25
f 1 25 26
f 1 26 27
f 1 27 28
f 1 28 29
f 1 29 30
f 1 30 31
f 1 31 32
f 1 32 33
