v -42.522884 -0.037166 -0.020395
v -39.873131 -12.576500 -0.020395
v -39.787464 -12.654929 -0.020395
v -38.796345 -13.172593 -0.020395
v -35.776203 -14.691114 -0.020395
v -35.522270 -14.688027 -0.020395
v -35.351486 -14.467211 -0.020395
v -35.102566 -14.029149 -0.020395
v -34.977142 -13.804337 -0.020395
v -22.678759 10.911737 -0.020395
v -22.467588 11.374824 -0.020395
v -22.295191 11.819314 -0.020395
v -22.266462 11.971457 -0.020395
v -22.912151 12.387435 -0.020395
v -24.755234 13.296837 -0.020395
v -26.481464 14.115099 -0.020395
v -26.590750 14.150566 -0.020395
v -38.031281 8.821195 -0.020395
v -38.141823 8.679927 -0.020395
v -38.235607 8.526684 -0.020395
v -38.428215 8.201728 -0.020395
v -40.226273 4.660377 -0.020395
v -42.203739 0.648209 -0.020395
v -42.454185 0.137612 -0.020395
v -42.522884 -0.037166 15.454568
v -39.873131 -12.576500 15.454568
v -39.787464 -12.654929 15.454568
v -38.796345 -13.172593 15.454568
v -35.776203 -14.691114 15.454568
v -35.522270 -14.688027 15.454568
v -35.351486 -14.467211 15.454568
v -35.102566 -14.029149 15.454568
v -34.977142 -13.804337 15.454568
v -22.678759 10.911737 15.454568
v -22.467588 11.374824 15.454568
v -22.295191 11.819314 15.454568
v -22.266462 11.971457 15.454568
v -22.912151 12.387435 15.454568
v -24.755234 13.296837 15.454568
v -26.481464 14.115099 15.454568
v -26.590750 14.150566 15.454568
v -38.031281 8.821195 15.454568
v -38.141823 8.679927 15.454568
v -38.235607 8.526684 15.454568
v -38.428215 8.201728 15.454568
v -40.226273 4.660377 15.454568
v -42.203739 0.648209 15.454568
v -42.454185 0.137612 15.454568
g WallSurface
f 1 2 26
f 1 26 25
f 2 3 27
f 2 27 26
f 3 4 28
f 3 28 27
f 4 5 29
f 4 29 28
f 5 6 30
f 5 30 29
f 6 7 31
f 6 31 30
f 7 8 32
f 7 32 31
f 8 9 33
f 8 33 32
f 9 10 34
f 9 34 33
f 10 11 35
f 10 35 34
f 11 12 36
f 11 36 35
f 12 13 37
f 12 37 36
f 13 14 38
f 13 38 37
f 14 15 39
f 14 39 38
f 15 16 40
f 15 40 39
f 16 17 41
f 16 41 40
f 17 18 42
f 17 42 41
f 18 19 43
f 18 43 42
f 19 20 44
f 19 44 43
f 20 21 45
f 20 45 44
f 21 22 46
f 21 46 45
f 22 23 47
f 22 47 46
f 23 24 48
f 23 48 47
f 24 1 25
f 24 25 48
g RoofSurface
f 25 26 27
f 25 27 28
f 25 28 29
f 25 29 30
f 25 30 31
f 25 31 32
f 25 32 33
f 25 33 34
f 25 34 35
f 25 35 36
f 25 36 37
f 25 37 38
f 25 38 39
f 25 39 40
f 25 40 41
f 25 41 42
f 25 42 43
f 25 43 44
f 25 44 45
f 25 45 46
f 25 46 47
f 25 47 48
g GroundSurface
f 1 2 3
f 1 3 4
f 1 4 5
f 1 5 6
f 1 6 7
f 1 7 8
f 1 8 9
f 1 9 10
f 1 10 11
f 1 11 12
f 1 12 13
f 1 13 14
f 1 14 15
f 1 15 16
f 1 16 17
f 1 17 18
f 1 18 19
f 1 19 20
f 1 20 21
f 1 21 22
f 1 22 23
f 1 23 24
