v 27.113297 -33.747929 -0.042545
v 27.136053 -33.977192 -0.042545
v 27.379845 -34.804306 -0.042545
v 27.650436 -35.498756 -0.042545
v 28.063068 -36.472698 -0.042545
v 29.193363 -39.071697 -0.042545
v 29.677065 -40.148746 -0.042545
v 30.248838 -41.346821 -0.042545
v 30.416183 -41.662491 -0.042545
v 30.591450 -41.767475 -0.042545
v 30.695889 -41.824986 -0.042545
v 32.095173 -42.284203 -0.042545
v 34.702412 -43.081085 -0.042545
v 37.444363 -43.876568 -0.042545
v 39.327251 -44.416859 -0.042545
v 40.241714 -44.664288 -0.042545
v 40.725166 -44.795052 -0.042545
v 41.063667 -44.792622 -0.042545
v 41.354633 -44.727089 -0.042545
v 43.330223 -43.349503 -0.042545
v 44.857605 -42.220562 -0.042545
v 45.023121 -41.977219 -0.042545
v 45.071064 -41.897221 -0.042545
v 45.173973 -41.629051 -0.042545
v 45.602673 -39.949417 -0.042545
v 46.676498 -35.143978 -0.042545
v 47.454166 -31.581171 -0.042545
v 47.419193 -31.113533 -0.042545
v 46.942898 -30.381649 -0.042545
v 44.629223 -26.899502 -0.042545
v 41.649223 -22.681561 -0.042545
v 41.554695 -22.622040 -0.042545
v 41.265480 -22.609360 -0.042545
v 40.802105 -22.628094 -0.042545
v 38.911251 -22.823027 -0.042545
v 29.522114 -23.954264 -0.042545
v 28.821665 -24.181349 -0.042545
v 28.758659 -24.212543 -0.042545
v 28.666443 -24.387810 -0.042545
v 28.630899 -24.500038 -0.042545
v 28.217667 -26.712008 -0.042545
v 27.685415 -29.874456 -0.042545
v 27.113297 -33.747929 25.635571
v 27.136053 -33.977192 25.635571
v 27.379845 -34.804306 25.635571
v 27.650436 -35.498756 25.635571
v 28.063068 -36.472698 25.635571
v 29.193363 -39.071697 25.635571
v 29.677065 -40.148746 25.635571
v 30.248838 -41.346821 25.635571
v 30.416183 -41.662491 25.635571
v 30.591450 -41.767475 25.635571
v 30.695889 -41.824986 25.635571
v 32.095173 -42.284203 25.635571
v 34.702412 -43.081085 25.635571
v 37.444363 -43.876568 25.635571
v 39.327251 -44.416859 25.635571
v 40.241714 -44.664288 25.635571
v 40.725166 -44.795052 25.635571
v 41.063667 -44.792622 25.635571
v 41.354633 -44.727089 25.635571
v 43.330223 -43.349503 25.635571
v 44.857605 -42.220562 25.635571
v 45.023121 -41.977219 25.635571
v 45.071064 -41.897221 25.635571
v 45.173973 -41.629051 25.635571
v 45.602673 -39.949417 25.635571
v 46.676498 -35.143978 25.635571
v 47.454166 -31.581171 25.635571
v 47.419193 -31.113533 25.635571
v 46.942898 -30.381649 25.635571
v 44.629223 -26.899502 25.635571
v 41.649223 -22.681561 25.635571
v 41.554695 -22.622040 25.635571
v 41.265480 -22.609360 25.635571
v 40.802105 -22.628094 25.635571
v 38.911251 -22.823027 25.635571
v 29.522114 -23.954264 25.635571
v 28.821665 -24.181349 25.635571
v 28.758659 -24.212543 25.635571
v 28.666443 -24.387810 25.635571
v 28.630899 -24.500038 25.635571
v 28.217667 -26.712008 25.635571
v 27.685415 -29.874456 25.635571
g WallSurface
f 1 2 44
f 1 44 43
f 2 3 45
f 2 45 44
f 3 4 46
f 3 46 45
f 4 5 47
f 4 47 46
f 5 6 48
f 5 48 47
f 6 7 49
f 6 49 48
f 7 8 50
f 7 50 49
f 8 9 51
f 8 51 50
f 9 10 52
f 9 52 51
f 10 11 53
f 10 53 52
f 11 12 54
f 11 54 53
f 12 13 55
f 12 55 54
f 13 14 56
f 13 56 55
f 14 15 57
f 14 57 56
f 15 16 58
f 15 58 57
f 16 17 59
f 16 59 58
f 17 18 60
f 17 60 59
f 18 19 61
f 18 61 60
f 19 20 62
f 19 62 61
f 20 21 63
f 20 63 62
f 21 22 64
f 21 64 63
f 22 23 65
f 22 65 64
f 23 24 66
f 23 66 65
f 24 25 67
f 24 67 66
f 25 26 68
f 25 68 67
f 26 27 69
f 26 69 68
f 27 28 70
f 27 70 69
f 28 29 71
f 28 71 70
f 29 30 72
f 29 72 71
f 30 31 73
f 30 73 72
f 31 32 74
f 31 74 73
f 32 33 75
f 32 75 74
f 33 34 76
f 33 76 75
f 34 35 77
f 34 77 76
f 35 36 78
f 35 78 77
f 36 37 79
f 36 79 78
f 37 38 80
f 37 80 79
f 38 39 81
f 38 81 80
f 39 40 82
f 39 82 81
f 40 41 83
f 40 83 82
f 41 42 84
f 41 84 83
f 42 1 43
f 42 43 84
g RoofSurface
f 43 44 45
f 43 45 46
f 43 46 47
f 43 47 48
f 43 48 49
f 43 49 50
f 43 50 51
f 43 51 52
f 43 52 53
f 43 53 54
f 43 54 55
f 43 55 56
f 43 56 57
f 43 57 58
f 43 58 59
f 43 59 60
f 43 60 61
f 43 61 62
f 43 62 63
f 43 63 64
f 43 64 65
f 43 65 66
f 43 66 67
f 43 67 68
f 43 68 69
f 43 69 70
f 43 70 71
f 43 71 72
f 43 72 73
f 43 73 74
f 43 74 75
f 43 75 76
f 43 76 77
f 43 77 78
f 43 78 79
f 43 79 80
f 43 80 81
f 43 81 82
f 43 82 83
f 43 83 84
g GroundSurface
f 1 2 3
f 1 3 4
f 1 4 5
f 1 5 6
f 1 6 7
f 1 7 8
f 1 8 9
f 1 9 10
f 1 10 11
f 1 11 12
f 1 12 13
f 1 13 14
f 1 14 15
f 1 15 16
f 1 16 17
f 1 17 18
f 1 18 19
f 1 19 20
f 1 20 21
f 1 21 22
f 1 22 23
f 1 23 24
f 1 24 25
f 1 25 26
f 1 26 27
f 1 27 28
f 1 28 29
f 1 29 30
f 1 30 31
f 1 31 32
f 1 32 33
f 1 33 34
f 1 34 35
f 1 35 36
f 1 36 37
f 1 37 38
f 1 38 39
f 1 39 40
f 1 40 41
f 1 41 42
