v -73.499115 -36.997601 -0.052476
v -73.227417 -37.468201 -0.052476
v -68.215981 -44.440109 -0.052476
v -67.561409 -45.180832 -0.052476
v -67.534164 -45.210396 -0.052476
v -47.896606 -37.541378 -0.052476
v -47.620789 -37.397869 -0.052476
v -41.876118 -33.261795 -0.052476
v -40.123329 -31.927988 -0.052476
v -40.021740 -31.818218 -0.052476
v -40.189777 -31.513414 -0.052476
v -48.582100 -19.929604 -0.052476
v -50.651878 -17.117895 -0.052476
v -51.700199 -15.700374 -0.052476
v -52.197689 -15.053750 -0.052476
v -52.388248 -15.063988 -0.052476
v -52.641376 -15.215692 -0.052476
v -53.839531 -16.049490 -0.052476
v -54.736015 -16.698162 -0.052476
v -57.760887 -18.897913 -0.052476
v -59.211342 -19.956457 -0.052476
v -60.144897 -20.674101 -0.052476
v -73.309219 -36.764706 -0.052476
v -73.499115 -36.997601 16.328035
v -73.227417 -37.468201 16.328035
v -68.215981 -44.440109 16.328035
v -67.561409 -45.180832 16.328035
v -67.534164 -45.210396 16.328035
v -47.896606 -37.541378 16.328035
v -47.620789 -37.397869 16.328035
v -41.876118 -33.261795 16.328035
v -40.123329 -31.927988 16.328035
v -40.021740 -31.818218 16.328035
v -40.189777 -31.513414 16.328035
v -48.582100 -19.929604 16.328035
v -50.651878 -17.117895 16.328035
v -51.700199 -15.700374 16.328035
v -52.197689 -15.053750 16.328035
v -52.388248 -15.063988 16.328035
v -52.641376 -15.215692 16.328035
v -53.839531 -16.049490 16.328035
v -54.736015 -16.698162 16.328035
v -57.760887 -18.897913 16.328035
v -59.211342 -19.956457 16.328035
v -60.144897 -20.674101 16.328035
v -73.309219 -36.764706 16.328035
g WallSurface
f 1 2 25
f 1 25 24
f 2 3 26
f 2 26 25
f 3 4 27
f 3 27 26
f 4 5 28
f 4 28 27
f 5 6 29
f 5 29 28
f 6 7 30
f 6 30 29
f 7 8 31
f 7 31 30
f 8 9 32
f 8 32 31
f 9 10 33
f 9 33 32
f 10 11 34
f 10 34 33
f 11 12 35
f 11 35 34
f 12 13 36
f 12 36 35
f 13 14 37
f 13 37 36
f 14 15 38
f 14 38 37
f 15 16 39
f 15 39 38
f 16 17 40
f 16 40 39
f 17 18 41
f 17 41 40
f 18 19 42
f 18 42 41
f 19 20 43
f 19 43 42
f 20 21 44
f 20 44 43
f 21 22 45
f 21 45 44
f 22 23 46
f 22 46 45
f 23 1 24
f 23 24 46
g RoofSurface
f 24 25 26
f 24 26 27
f 24 27 28
f 24 28 29
f 24 29 30
f 24 30 31
f 24 31 32
f 24 32 33
f 24 33 34
f 24 34 35
f 24 35 36
f 24 36 37
f 24 37 38
f 24 38 39
f 24 39 40
f 24 40 41
f 24 41 42
f 24 42 43
f 24 43 44
f 24 44 45
f 24 45 46
g GroundSurface
f 1 2 3
f 1 3 4
f 1 4 5
f 1 5 6
f 1 6 7
f 1 7 8
f 1 8 9
f 1 9 10
f 1 10 11
f 1 11 12
f 1 12 13
f 1 13 14
f 1 14 15
f 1 15 16
f 1 16 17
f 1 17 18
f 1 18 19
f 1 19 20
f 1 20 21
f 1 21 22
f 1 22 23
