v -64.289757 -19.395531 -0.024619
v -62.042244 -25.581528 -0.024619
v -61.259140 -26.523859 -0.024619
v -60.494049 -27.352106 -0.024619
v -58.875732 -29.008923 -0.024619
v -58.418777 -29.320904 -0.024619
v -58.136173 -29.305876 -0.024619
v -53.323200 -27.941059 -0.024619
v -50.077339 -27.010807 -0.024619
v -47.677818 -26.309242 -0.024619
v -46.413548 -25.925964 -0.024619
v -46.098053 -25.736822 -0.024619
v -45.603001 -21.655712 -0.024619
v -45.005184 -15.466246 -0.024619
v -45.127270 -15.330585 -0.024619
v -45.339928 -15.139853 -0.024619
v -46.959572 -14.304508 -0.024619
v -55.612160 -9.962045 -0.024619
v -57.061913 -9.272564 -0.024619
v -57.269749 -9.320521 -0.024619
v -58.743996 -11.268295 -0.024619
v -61.489006 -15.063245 -0.024619
v -63.286144 -17.570019 -0.024619
v -64.186150 -18.892881 -0.024619
v -64.276237 -19.137754 -0.024619
v -64.289757 -19.395531 26.141644
v -62.042244 -25.581528 26.141644
v -61.259140 -26.523859 26.141644
v -60.494049 -27.352106 26.141644
v -58.875732 -29.008923 26.141644
v -58.418777 -29.320904 26.141644
v -58.136173 -29.305876 26.141644
v -53.323200 -27.941059 26.141644
v -50.077339 -27.010807 26.141644
v -47.677818 -26.309242 26.141644
v -46.413548 -25.925964 26.141644
v -46.098053 -25.736822 26.141644
v -45.603001 -21.655712 26.141644
v -45.005184 -15.466246 26.141644
v -45.127270 -15.330585 26.141644
v -45.339928 -15.139853 26.141644
v -46.959572 -14.304508 26.141644
v -55.612160 -9.962045 26.141644
v -57.061913 -9.272564 26.141644
v -57.269749 -9.320521 26.141644
v -58.743996 -11.268295 26.141644
v -61.489006 -15.063245 26.141644
v -63.286144 -17.570019 26.141644
v -64.186150 -18.892881 26.141644
v -64.276237 -19.137754 26.141644
g WallSurface
f 1 2 27
f 1 27 26
f 2 3 28
f 2 28 27
f 3 4 29
f 3 29 28
f 4 5 30
f 4 30 29
f 5 6 31
f 5 31 30
f 6 7 32
f 6 32 31
f 7 8 33
f 7 33 32
f 8 9 34
f 8 34 33
f 9 10 35
f 9 35 34
f 10 11 36
f 10 36 35
f 11 12 37
f 11 37 36
f 12 13 38
f 12 38 37
f 13 14 39
f 13 39 38
f 14 15 40
f 14 40 39
f 15 16 41
f 15 41 40
f 16 17 42
f 16 42 41
f 17 18 43
f 17 43 42
f 18 19 44
f 18 44 43
f 19 20 45
f 19 45 44
f 20 21 46
f 20 46 45
f 21 22 47
f 21 47 46
f 22 23 48
f 22 48 47
f 23 24 49
f 23 49 48
f 24 25 50
f 24 50 49
f 25 1 26
f 25 26 50
g RoofSurface
f 26 27 28
f 26 28 29
f 26 29 30
f 26 30 31
f 26 31 32
f 26 32 33
f 26 33 34
f 26 34 35
f 26 35 36
f 26 36 37
f 26 37 38
f 26 38 39
f 26 39 40
f 26 40 41
f 26 41 42
f 26 42 43
f 26 43 44
f 26 44 45
f 26 45 46
f 26 46 47
f 26 47 48
f 26 48 49
f 26 49 50
g GroundSurface
f 1 2 3
f 1 3 4
f 1 4 5
f 1 5 6
f 1 6 7
f 1 7 8
f 1 8 9
f 1 9 10
f 1 10 11
f 1 11 12
f 1 12 13
f 1 13 14
f 1 14 15
f 1 15 16
f 1 16 17
f 1 17 18
f 1 18 19
f 1 19 20
f 1 20 21
f 1 21 22
f 1 22 23
f 1 23 24
f 1 24 25
