v 9.967191 56.433586 -0.059954
v 10.280526 55.936157 -0.059954
v 15.195313 50.997280 -0.059954
v 19.486027 46.751785 -0.059954
v 19.656967 46.610031 -0.059954
v 20.164064 46.213001 -0.059954
v 20.367840 46.073811 -0.059954
v 20.623873 46.263542 -0.059954
v 21.395212 46.935043 -0.059954
v 31.922890 57.461670 -0.059954
v 38.591007 64.170662 -0.059954
v 39.304626 65.031593 -0.059954
v 39.328869 65.300240 -0.059954
v 37.699940 66.941086 -0.059954
v 31.097601 73.513855 -0.059954
v 29.887556 74.658768 -0.059954
v 29.397594 75.109512 -0.059954
v 28.959351 75.451759 -0.059954
v 28.952545 75.452499 -0.059954
v 28.873131 75.410355 -0.059954
v 28.568117 75.212357 -0.059954
v 23.066414 69.760002 -0.059954
v 11.314168 57.945156 -0.059954
v 10.040228 56.623661 -0.059954
v 9.967821 56.448898 -0.059954
v 9.967191 56.433586 25.628147
v 10.280526 55.936157 25.628147
v 15.195313 50.997280 25.628147
v 19.486027 46.751785 25.628147
v 19.656967 46.610031 25.628147
v 20.164064 46.213001 25.628147
v 20.367840 46.073811 25.628147
v 20.623873 46.263542 25.628147
v 21.395212 46.935043 25.628147
v 31.922890 57.461670 25.628147
v 38.591007 64.170662 25.628147
v 39.304626 65.031593 25.628147
v 39.328869 65.300240 25.628147
v 37.699940 66.941086 25.628147
v 31.097601 73.513855 25.628147
v 29.887556 74.658768 25.628147
v 29.397594 75.109512 25.628147
v 28.959351 75.451759 25.628147
v 28.952545 75.452499 25.628147
v 28.873131 75.410355 25.628147
v 28.568117 75.212357 25.628147
v 23.066414 69.760002 25.628147
v 11.314168 57.945156 25.628147
v 10.040228 56.623661 25.628147
v 9.967821 56.448898 25.628147
g WallSurface
f 1 2 27
f 1 27 26
f 2 3 28
f 2 28 27
f 3 4 29
f 3 29 28
f 4 5 30
f 4 30 29
f 5 6 31
f 5 31 30
f 6 7 32
f 6 32 31
f 7 8 33
f 7 33 32
f 8 9 34
f 8 34 33
f 9 10 35
f 9 35 34
f 10 11 36
f 10 36 35
f 11 12 37
f 11 37 36
f 12 13 38
f 12 38 37
f 13 14 39
f 13 39 38
f 14 15 40
f 14 40 39
f 15 16 41
f 15 41 40
f 16 17 42
f 16 42 41
f 17 18 43
f 17 43 42
f 18 19 44
f 18 44 43
f 19 20 45
f 19 45 44
f 20 21 46
f 20 46 45
f 21 22 47
f 21 47 46
f 22 23 48
f 22 48 47
f 23 24 49
f 23 49 48
f 24 25 50
f 24 50 49
f 25 1 26
f 25 26 50
g RoofSurface
f 26 27 28
f 26 28 29
f 26 29 30
f 26 30 31
f 26 31 32
f 26 32 33
f 26 33 34
f 26 34 35
f 26 35 36
f 26 36 37
f 26 37 38
f 26 38 39
f 26 39 40
f 26 40 41
f 26 41 42
f 26 42 43
f 26 43 44
f 26 44 45
f 26 45 46
f 26 46 47
f 26 47 48
f 26 48 49
f 26 49 50
g GroundSurface
f 1 2 3
f 1 3 4
f 1 4 5
f 1 5 6
f 1 6 7
f 1 7 8
f 1 8 9
f 1 9 10
f 1 10 11
f 1 11 12
f 1 12 13
f 1 13 14
f 1 14 15
f 1 15 16
f 1 16 17
f 1 17 18
f 1 18 19
f 1 19 20
f 1 20 21
f 1 21 22
f 1 22 23
f 1 23 24
f 1 24 25
