v -43.910824 -47.204071 -0.041299
v -43.837463 -48.275772 -0.041299
v -43.693996 -48.693378 -0.041299
v -35.684753 -58.766842 -0.041299
v -33.684444 -58.813110 -0.041299
v -29.514130 -58.889645 -0.041299
v -24.667706 -58.914539 -0.041299
v -22.942629 -57.817230 -0.041299
v -17.406433 -49.036419 -0.041299
v -20.843798 -44.600052 -0.041299
v -22.412577 -44.489361 -0.041299
v -42.712372 -44.249527 -0.041299
v -43.374088 -44.314987 -0.041299
v -43.798981 -45.101810 -0.041299
v -43.901459 -45.556931 -0.041299
v -43.910824 -47.204071 3.254249
v -43.837463 -48.275772 3.254249
v -43.693996 -48.693378 3.254249
v -35.684753 -58.766842 3.254249
v -33.684444 -58.813110 3.254249
v -29.514130 -58.889645 3.254249
v -24.667706 -58.914539 3.254249
v -22.942629 -57.817230 3.254249
v -17.406433 -49.036419 3.254249
v -20.843798 -44.600052 3.254249
v -22.412577 -44.489361 3.254249
v -42.712372 -44.249527 3.254249
v -43.374088 -44.314987 3.254249
v -43.798981 -45.101810 3.254249
v -43.901459 -45.556931 3.254249
g WallSurface
f 1 2 17
f 1 17 16
f 2 3 18
f 2 18 17
f 3 4 19
f 3 19 18
f 4 5 20
f 4 20 19
f 5 6 21
f 5 21 20
f 6 7 22
f 6 22 21
f 7 8 23
f 7 23 22
f 8 9 24
f 8 24 23
f 9 10 25
f 9 25 24
f 10 11 26
f 10 26 25
f 11 12 27
f 11 27 26
f 12 13 28
f 12 28 27
f 13 14 29
f 13 29 28
f 14 15 30
f 14 30 29
f 15 1 16
f 15 16 30
g RoofSurface
f 16 17 18
f 16 18 19
f 16 19 20
f 16 20 21
f 16 21 22
f 16 22 23
f 16 23 24
f 16 24 25
f 16 25 26
f 16 26 27
f 16 27 28
f 16 28 29
f 16 29 30
g GroundSurface
f 1 2 3
f 1 3 4
f 1 4 5
f 1 5 6
f 1 6 7
f 1 7 8
f 1 8 9
f 1 9 10
f 1 10 11
f 1 11 12
f 1 12 13
f 1 13 14
f 1 14 15
