v -77.083130 38.812725 -0.046131
v -76.640343 38.018383 -0.046131
v -76.235359 37.293415 -0.046131
v -68.348595 23.582521 -0.046131
v -66.578697 20.555462 -0.046131
v -66.294548 20.118067 -0.046131
v -66.111565 19.849735 -0.046131
v -65.603600 19.312872 -0.046131
v -65.553978 19.332623 -0.046131
v -57.181942 24.123186 -0.046131
v -49.329132 28.648092 -0.046131
v -31.811502 38.757313 -0.046131
v -28.936199 40.452572 -0.046131
v -28.826807 40.561916 -0.046131
v -28.660799 40.887321 -0.046131
v -28.907379 41.361794 -0.046131
v -36.691196 54.889378 -0.046131
v -39.458302 59.662796 -0.046131
v -40.248585 60.940010 -0.046131
v -40.586960 61.318890 -0.046131
v -40.794212 61.220413 -0.046131
v -41.337326 60.961731 -0.046131
v -50.296284 55.810661 -0.046131
v -64.092415 47.836422 -0.046131
v -74.589645 41.759335 -0.046131
v -75.238441 41.366364 -0.046131
v -76.091698 40.838573 -0.046131
v -77.083130 38.812725 8.712256
v -76.640343 38.018383 8.712256
v -76.235359 37.293415 8.712256
v -68.348595 23.582521 8.712256
v -66.578697 20.555462 8.712256
v -66.294548 20.118067 8.712256
v -66.111565 19.849735 8.712256
v -65.603600 19.312872 8.712256
v -65.553978 19.332623 8.712256
v -57.181942 24.123186 8.712256
v -49.329132 28.648092 8.712256
v -31.811502 38.757313 8.712256
v -28.936199 40.452572 8.712256
v -28.826807 40.561916 8.712256
v -28.660799 40.887321 8.712256
v -28.907379 41.361794 8.712256
v -36.691196 54.889378 8.712256
v -39.458302 59.662796 8.712256
v -40.248585 60.940010 8.712256
v -40.586960 61.318890 8.712256
v -40.794212 61.220413 8.712256
v -41.337326 60.961731 8.712256
v -50.296284 55.810661 8.712256
v -64.092415 47.836422 8.712256
v -74.589645 41.759335 8.712256
v -75.238441 41.366364 8.712256
v -76.091698 40.838573 8.712256
g WallSurface
f 1 2 29
f 1 29 28
f 2 3 30
f 2 30 29
f 3 4 31
f 3 31 30
f 4 5 32
f 4 32 31
f 5 6 33
f 5 33 32
f 6 7 34
f 6 34 33
f 7 8 35
f 7 35 34
f 8 9 36
f 8 36 35
f 9 10 37
f 9 37 36
f 10 11 38
f 10 38 37
f 11 12 39
f 11 39 38
f 12 13 40
f 12 40 39
f 13 14 41
f 13 41 40
f 14 15 42
f 14 42 41
f 15 16 43
f 15 43 42
f 16 17 44
f 16 44 43
f 17 18 45
f 17 45 44
f 18 19 46
f 18 46 45
f 19 20 47
f 19 47 46
f 20 21 48
f 20 48 47
f 21 22 49
f 21 49 48
f 22 23 50
f 22 50 49
f 23 24 51
f 23 51 50
f 24 25 52
f 24 52 51
f 25 26 53
f 25 53 52
f 26 27 54
f 26 54 53
f 27 1 28
f 27 28 54
g RoofSurface
f 28 29 30
f 28 30 31
f 28 31 32
f 28 32 33
f 28 33 34
f 28 34 35
f 28 35 36
f 28 36 37
f 28 37 38
f 28 38 39
f 28 39 40
f 28 40 41
f 28 41 42
f 28 42 43
f 28 43 44
f 28 44 45
f 28 45 46
f 28 46 47
f 28 47 48
f 28 48 49
f 28 49 50
f 28 50 51
f 28 51 52
f 28 52 53
f 28 53 54
g GroundSurface
f 1 2 3
f 1 3 4
f 1 4 5
f 1 5 6
f 1 6 7
f 1 7 8
f 1 8 9
f 1 9 10
f 1 10 11
f 1 11 12
f 1 12 13
f 1 13 14
f 1 14 15
f 1 15 16
f 1 16 17
f 1 17 18
f 1 18 19
f 1 19 20
f 1 20 21
f 1 21 22
f 1 22 23
f 1 23 24
f 1 24 25
f 1 25 26
f 1 26 27
