v 34.574814 10.959075 -0.036574
v 34.771038 1.154343 -0.036574
v 34.872105 -3.590724 -0.036574
v 34.953712 -6.935472 -0.036574
v 34.981941 -7.766780 -0.036574
v 35.013824 -8.359665 -0.036574
v 35.083752 -8.371181 -0.036574
v 36.595791 -8.364722 -0.036574
v 37.917599 -8.347733 -0.036574
v 43.186195 -8.261384 -0.036574
v 65.134109 -7.824690 -0.036574
v 68.392380 -7.735445 -0.036574
v 69.823616 -7.691263 -0.036574
v 70.105270 -7.638305 -0.036574
v 70.140274 -7.144411 -0.036574
v 70.116737 -5.521600 -0.036574
v 70.063736 -2.701805 -0.036574
v 69.798401 11.163180 -0.036574
v 69.778816 11.944016 -0.036574
v 69.736122 12.745755 -0.036574
v 69.652473 12.902008 -0.036574
v 68.116768 12.908767 -0.036574
v 38.421844 12.350539 -0.036574
v 35.001823 12.227488 -0.036574
v 34.953503 12.224370 -0.036574
v 34.643581 12.135842 -0.036574
v 34.608929 11.838338 -0.036574
v 34.574814 10.959075 17.593222
v 34.771038 1.154343 17.593222
v 34.872105 -3.590724 17.593222
v 34.953712 -6.935472 17.593222
v 34.981941 -7.766780 17.593222
v 35.013824 -8.359665 17.593222
v 35.083752 -8.371181 17.593222
v 36.595791 -8.364722 17.593222
v 37.917599 -8.347733 17.593222
v 43.186195 -8.261384 17.593222
v 65.134109 -7.824690 17.593222
v 68.392380 -7.735445 17.593222
v 69.823616 -7.691263 17.593222
v 70.105270 -7.638305 17.593222
v 70.140274 -7.144411 17.593222
v 70.116737 -5.521600 17.593222
v 70.063736 -2.701805 17.593222
v 69.798401 11.163180 17.593222
v 69.778816 11.944016 17.593222
v 69.736122 12.745755 17.593222
v 69.652473 12.902008 17.593222
v 68.116768 12.908767 17.593222
v 38.421844 12.350539 17.593222
v 35.001823 12.227488 17.593222
v 34.953503 12.224370 17.593222
v 34.643581 12.135842 17.593222
v 34.608929 11.838338 17.593222
g WallSurface
f 1 2 29
f 1 29 28
f 2 3 30
f 2 30 29
f 3 4 31
f 3 31 30
f 4 5 32
f 4 32 31
f 5 6 33
f 5 33 32
f 6 7 34
f 6 34 33
f 7 8 35
f 7 35 34
f 8 9 36
f 8 36 35
f 9 10 37
f 9 37 36
f 10 11 38
f 10 38 37
f 11 12 39
f 11 39 38
f 12 13 40
f 12 40 39
f 13 14 41
f 13 41 40
f 14 15 42
f 14 42 41
f 15 16 43
f 15 43 42
f 16 17 44
f 16 44 43
f 17 18 45
f 17 45 44
f 18 19 46
f 18 46 45
f 19 20 47
f 19 47 46
f 20 21 48
f 20 48 47
f 21 22 49
f 21 49 48
f 22 23 50
f 22 50 49
f 23 24 51
f 23 51 50
f 24 25 52
f 24 52 51
f 25 26 53
f 25 53 52
f 26 27 54
f 26 54 53
f 27 1 28
f 27 28 54
g RoofSurface
f 28 29 30
f 28 30 31
f 28 31 32
f 28 32 33
f 28 33 34
f 28 34 35
f 28 35 36
f 28 36 37
f 28 37 38
f 28 38 39
f 28 39 40
f 28 40 41
f 28 41 42
f 28 42 43
f 28 43 44
f 28 44 45
f 28 45 46
f 28 46 47
f 28 47 48
f 28 48 49
f 28 49 50
f 28 50 51
f 28 51 52
f 28 52 53
f 28 53 54
g GroundSurface
f 1 2 3
f 1 3 4
f 1 4 5
f 1 5 6
f 1 6 7
f 1 7 8
f 1 8 9
f 1 9 10
f 1 10 11
f 1 11 12
f 1 12 13
f 1 13 14
f 1 14 15
f 1 15 16
f 1 16 17
f 1 17 18
f 1 18 19
f 1 19 20
f 1 20 21
f 1 21 22
f 1 22 23
f 1 23 24
f 1 24 25
f 1 25 26
f 1 26 27
