v 17.269705 -29.864145 -0.024123
v 17.376165 -29.980453 -0.024123
v 17.627520 -30.139765 -0.024123
v 19.812210 -31.333519 -0.024123
v 21.024090 -31.928171 -0.024123
v 21.374449 -32.085693 -0.024123
v 21.698158 -32.170242 -0.024123
v 22.591608 -31.929146 -0.024123
v 24.014790 -31.496891 -0.024123
v 26.690939 -30.580605 -0.024123
v 27.589338 -30.258736 -0.024123
v 27.662853 -29.949898 -0.024123
v 27.802324 -29.344231 -0.024123
v 28.734999 -25.187632 -0.024123
v 29.353001 -21.964552 -0.024123
v 29.485300 -21.233696 -0.024123
v 29.504219 -20.765574 -0.024123
v 29.429632 -18.949980 -0.024123
v 29.028774 -12.784653 -0.024123
v 28.819677 -10.082700 -0.024123
v 28.543535 -10.056577 -0.024123
v 27.928053 -10.049207 -0.024123
v 25.003407 -10.193825 -0.024123
v 23.006300 -10.325234 -0.024123
v 21.870110 -10.444760 -0.024123
v 21.818943 -10.475852 -0.024123
v 21.799932 -10.488814 -0.024123
v 21.734930 -10.533536 -0.024123
v 21.376513 -11.196486 -0.024123
v 20.194353 -13.615933 -0.024123
v 18.322430 -17.978144 -0.024123
v 17.332832 -28.730471 -0.024123
v 17.269705 -29.864145 33.530495
v 17.376165 -29.980453 33.530495
v 17.627520 -30.139765 33.530495
v 19.812210 -31.333519 33.530495
v 21.024090 -31.928171 33.530495
v 21.374449 -32.085693 33.530495
v 21.698158 -32.170242 33.530495
v 22.591608 -31.929146 33.530495
v 24.014790 -31.496891 33.530495
v 26.690939 -30.580605 33.530495
v 27.589338 -30.258736 33.530495
v 27.662853 -29.949898 33.530495
v 27.802324 -29.344231 33.530495
v 28.734999 -25.187632 33.530495
v 29.353001 -21.964552 33.530495
v 29.485300 -21.233696 33.530495
v 29.504219 -20.765574 33.530495
v 29.429632 -18.949980 33.530495
v 29.028774 -12.784653 33.530495
v 28.819677 -10.082700 33.530495
v 28.543535 -10.056577 33.530495
v 27.928053 -10.049207 33.530495
v 25.003407 -10.193825 33.530495
v 23.006300 -10.325234 33.530495
v 21.870110 -10.444760 33.530495
v 21.818943 -10.475852 33.530495
v 21.799932 -10.488814 33.530495
v 21.734930 -10.533536 33.530495
v 21.376513 -11.196486 33.530495
v 20.194353 -13.615933 33.530495
v 18.322430 -17.978144 33.530495
v 17.332832 -28.730471 33.530495
g WallSurface
f 1 2 34
f 1 34 33
f 2 3 35
f 2 35 34
f 3 4 36
f 3 36 35
f 4 5 37
f 4 37 36
f 5 6 38
f 5 38 37
f 6 7 39
f 6 39 38
f 7 8 40
f 7 40 39
f 8 9 41
f 8 41 40
f 9 10 42
f 9 42 41
f 10 11 43
f 10 43 42
f 11 12 44
f 11 44 43
f 12 13 45
f 12 45 44
f 13 14 46
f 13 46 45
f 14 15 47
f 14 47 46
f 15 16 48
f 15 48 47
f 16 17 49
f 16 49 48
f 17 18 50
f 17 50 49
f 18 19 51
f 18 51 50
f 19 20 52
f 19 52 51
f 20 21 53
f 20 53 52
f 21 22 54
f 21 54 53
f 22 23 55
f 22 55 54
f 23 24 56
f 23 56 55
f 24 25 57
f 24 57 56
f 25 26 58
f 25 58 57
f 26 27 59
f 26 59 58
f 27 28 60
f 27 60 59
f 28 29 61
f 28 61 60
f 29 30 62
f 29 62 61
f 30 31 63
f 30 63 62
f 31 32 64
f 31 64 63
f 32 1 33
f 32 33 64
g RoofSurface
f 33 34 35
f 33 35 36
f 33 36 37
f 33 37 38
f 33 38 39
f 33 39 40
f 33 40 41
f 33 41 42
f 33 42 43
f 33 43 44
f 33 44 45
f 33 45 46
f 33 46 47
f 33 47 48
f 33 48 49
f 33 49 50
f 33 50 51
f 33 51 52
f 33 52 53
f 33 53 54
f 33 54 55
f 33 55 56
f 33 56 57
f 33 57 58
f 33 58 59
f 33 59 60
f 33 60 61
f 33 61 62
f 33 62 63
f 33 63 64
g GroundSurface
f 1 2 3
f 1 3 4
f 1 4 5
f 1 5 6
f 1 6 7
f 1 7 8
f 1 8 9
f 1 9 10
f 1 10 11
f 1 11 12
f 1 12 13
f 1 13 14
f 1 14 15
f 1 15 16
f 1 16 17
f 1 17 18
f 1 18 19
f 1 19 20
f 1 20 21
f 1 21 22
f 1 22 23
f 1 23 24
f 1 24 25
f 1 25 26
f 1 26 27
f 1 27 28
f 1 28 29
f 1 29 30
f 1 30 31
f 1 31 32
