v 4.317184 50.985950 -0.041616
v 4.365183 50.904217 -0.041616
v 4.463227 50.861141 -0.041616
v 26.415209 42.319153 -0.041616
v 26.631695 42.255341 -0.041616
v 27.628115 42.222603 -0.041616
v 35.814335 42.027870 -0.041616
v 37.628620 42.033527 -0.041616
v 37.785572 42.047642 -0.041616
v 37.804016 42.058498 -0.041616
v 37.835308 42.146702 -0.041616
v 37.937553 42.586231 -0.041616
v 38.414417 62.685753 -0.041616
v 38.430149 64.471260 -0.041616
v 38.385159 64.980003 -0.041616
v 38.371258 65.133339 -0.041616
v 38.334312 65.250778 -0.041616
v 38.310368 65.284401 -0.041616
v 38.237278 65.308769 -0.041616
v 31.989285 65.491348 -0.041616
v 28.896517 65.516876 -0.041616
v 27.125044 65.521721 -0.041616
v 26.880428 65.484299 -0.041616
v 4.502529 57.869728 -0.041616
v 4.469596 57.855560 -0.041616
v 4.402222 55.652245 -0.041616
v 4.317184 50.985950 13.404863
v 4.365183 50.904217 13.404863
v 4.463227 50.861141 13.404863
v 26.415209 42.319153 13.404863
v 26.631695 42.255341 13.404863
v 27.628115 42.222603 13.404863
v 35.814335 42.027870 13.404863
v 37.628620 42.033527 13.404863
v 37.785572 42.047642 13.404863
v 37.804016 42.058498 13.404863
v 37.835308 42.146702 13.404863
v 37.937553 42.586231 13.404863
v 38.414417 62.685753 13.404863
v 38.430149 64.471260 13.404863
v 38.385159 64.980003 13.404863
v 38.371258 65.133339 13.404863
v 38.334312 65.250778 13.404863
v 38.310368 65.284401 13.404863
v 38.237278 65.308769 13.404863
v 31.989285 65.491348 13.404863
v 28.896517 65.516876 13.404863
v 27.125044 65.521721 13.404863
v 26.880428 65.484299 13.404863
v 4.502529 57.869728 13.404863
v 4.469596 57.855560 13.404863
v 4.402222 55.652245 13.404863
g WallSurface
f 1 2 28
f 1 28 27
f 2 3 29
f 2 29 28
f 3 4 30
f 3 30 29
f 4 5 31
f 4 31 30
f 5 6 32
f 5 32 31
f 6 7 33
f 6 33 32
f 7 8 34
f 7 34 33
f 8 9 35
f 8 35 34
f 9 10 36
f 9 36 35
f 10 11 37
f 10 37 36
f 11 12 38
f 11 38 37
f 12 13 39
f 12 39 38
f 13 14 40
f 13 40 39
f 14 15 41
f 14 41 40
f 15 16 42
f 15 42 41
f 16 17 43
f 16 43 42
f 17 18 44
f 17 44 43
f 18 19 45
f 18 45 44
f 19 20 46
f 19 46 45
f 20 21 47
f 20 47 46
f 21 22 48
f 21 48 47
f 22 23 49
f 22 49 48
f 23 24 50
f 23 50 49
f 24 25 51
f 24 51 50
f 25 26 52
f 25 52 51
f 26 1 27
f 26 27 52
g RoofSurface
f 27 28 29
f 27 29 30
f 27 30 31
f 27 31 32
f 27 32 33
f 27 33 34
f 27 34 35
f 27 35 36
f 27 36 37
f 27 37 38
f 27 38 39
f 27 39 40
f 27 40 41
f 27 41 42
f 27 42 43
f 27 43 44
f 27 44 45
f 27 45 46
f 27 46 47
f 27 47 48
f 27 48 49
f 27 49 50
f 27 50 51
f 27 51 52
g GroundSurface
f 1 2 3
f 1 3 4
f 1 4 5
f 1 5 6
f 1 6 7
f 1 7 8
f 1 8 9
f 1 9 10
f 1 10 11
f 1 11 12
f 1 12 13
f 1 13 14
f 1 14 15
f 1 15 16
f 1 16 17
f 1 17 18
f 1 18 19
f 1 19 20
f 1 20 21
f 1 21 22
f 1 22 23
f 1 23 24
f 1 24 25
f 1 25 26
