v -39.261227 -0.011075 -0.042074
v -39.247417 -0.121708 -0.042074
v -39.096870 -0.303398 -0.042074
v -38.577702 -0.897288 -0.042074
v -36.118355 -3.520514 -0.042074
v -35.016396 -4.695065 -0.042074
v -26.539261 -13.671607 -0.042074
v -23.628967 -16.747417 -0.042074
v -23.051262 -17.280485 -0.042074
v -23.007126 -17.296270 -0.042074
v -22.847914 -17.244823 -0.042074
v -22.176338 -16.656502 -0.042074
v -13.357582 -8.348690 -0.042074
v -10.501763 -5.593831 -0.042074
v -10.173932 -5.269650 -0.042074
v -5.726743 14.627297 -0.042074
v -5.664942 14.907015 -0.042074
v -5.740705 15.005915 -0.042074
v -12.769207 22.504454 -0.042074
v -13.723014 23.470779 -0.042074
v -13.908526 23.652651 -0.042074
v -14.135850 23.674042 -0.042074
v -14.214046 23.636227 -0.042074
v -14.372558 23.523237 -0.042074
v -15.241844 22.728008 -0.042074
v -25.175663 13.486654 -0.042074
v -38.727444 0.579826 -0.042074
v -39.099091 0.194312 -0.042074
v -39.214203 0.068126 -0.042074
v -39.261227 -0.011075 14.319363
v -39.247417 -0.121708 14.319363
v -39.096870 -0.303398 14.319363
v -38.577702 -0.897288 14.319363
v -36.118355 -3.520514 14.319363
v -35.016396 -4.695065 14.319363
v -26.539261 -13.671607 14.319363
v -23.628967 -16.747417 14.319363
v -23.051262 -17.280485 14.319363
v -23.007126 -17.296270 14.319363
v -22.847914 -17.244823 14.319363
v -22.176338 -16.656502 14.319363
v -13.357582 -8.348690 14.319363
v -10.501763 -5.593831 14.319363
v -10.173932 -5.269650 14.319363
v -5.726743 14.627297 14.319363
v -5.664942 14.907015 14.319363
v -5.740705 15.005915 14.319363
v -12.769207 22.504454 14.319363
v -13.723014 23.470779 14.319363
v -13.908526 23.652651 14.319363
v -14.135850 23.674042 14.319363
v -14.214046 23.636227 14.319363
v -14.372558 23.523237 14.319363
v -15.241844 22.728008 14.319363
v -25.175663 13.486654 14.319363
v -38.727444 0.579826 14.319363
v -39.099091 0.194312 14.319363
v -39.214203 0.068126 14.319363
g WallSurface
f 1 2 31
f 1 31 30
f 2 3 32
f 2 32 31
f 3 4 33
f 3 33 32
f 4 5 34
f 4 34 33
f 5 6 35
f 5 35 34
f 6 7 36
f 6 36 35
f 7 8 37
f 7 37 36
f 8 9 38
f 8 38 37
f 9 10 39
f 9 39 38
f 10 11 40
f 10 40 39
f 11 12 41
f 11 41 40
f 12 13 42
f 12 42 41
f 13 14 43
f 13 43 42
f 14 15 44
f 14 44 43
f 15 16 45
f 15 45 44
f 16 17 46
f 16 46 45
f 17 18 47
f 17 47 46
f 18 19 48
f 18 48 47
f 19 20 49
f 19 49 48
f 20 21 50
f 20 50 49
f 21 22 51
f 21 51 50
f 22 23 52
f 22 52 51
f 23 24 53
f 23 53 52
f 24 25 54
f 24 54 53
f 25 26 55
f 25 55 54
f 26 27 56
f 26 56 55
f 27 28 57
f 27 57 56
f 28 29 58
f 28 58 57
f 29 1 30
f 29 30 58
g RoofSurface
f 30 31 32
f 30 32 33
f 30 33 34
f 30 34 35
f 30 35 36
f 30 36 37
f 30 37 38
f 30 38 39
f 30 39 40
f 30 40 41
f 30 41 42
f 30 42 43
f 30 43 44
f 30 44 45
f 30 45 46
f 30 46 47
f 30 47 48
f 30 48 49
f 30 49 50
f 30 50 51
f 30 51 52
f 30 52 53
f 30 53 54
f 30 54 55
f 30 55 56
f 30 56 57
f 30 57 58
g GroundSurface
f 1 2 3
f 1 3 4
f 1 4 5
f 1 5 6
f 1 6 7
f 1 7 8
f 1 8 9
f 1 9 10
f 1 10 11
f 1 11 12
f 1 12 13
f 1 13 14
f 1 14 15
f 1 15 16
f 1 16 17
f 1 17 18
f 1 18 19
f 1 19 20
f 1 20 21
f 1 21 22
f 1 22 23
f 1 23 24
f 1 24 25
f 1 25 26
f 1 26 27
f 1 27 28
f 1 28 29
